<?xml version="1.0" standalone="no"?><!DOCTYPE svg PUBLIC "-//W3C//DTD SVG 1.1//EN" "http://www.w3.org/Graphics/SVG/1.1/DTD/svg11.dtd"><svg class="icon" width="64px" height="64.00px" viewBox="0 0 1024 1024" version="1.1" xmlns="http://www.w3.org/2000/svg"><path fill="#505766" d="M397.568 832H0V64h960v400.512a349.184 349.184 0 0 0-64-41.728V128H64v512h333.568a352.128 352.128 0 0 0-11.968 64H64v64h321.6c1.984 22.016 6.08 43.328 11.968 64zM256 896v64h208.448a352.512 352.512 0 0 1-41.728-64H256z m235.84 28.032l45.248 45.248 90.496-90.496-45.248-45.248-90.496 90.496z m361.984-271.488l90.496-90.496-45.248-45.248-90.496 90.496 45.248 45.248zM491.84 562.048l90.496 90.496 45.248-45.248-90.496-90.496-45.248 45.248z m316.736 316.736l90.496 90.496 45.248-45.248-90.496-90.496-45.248 45.248zM704 1024h64v-128h-64v128z m0-448h64V448h-64v128z m-128 128H448v64h128v-64z m320 0v64h128v-64h-128z"  /></svg>