<?xml version="1.0" standalone="no"?><!DOCTYPE svg PUBLIC "-//W3C//DTD SVG 1.1//EN" "http://www.w3.org/Graphics/SVG/1.1/DTD/svg11.dtd"><svg class="icon" width="64px" height="64.00px" viewBox="0 0 1024 1024" version="1.1" xmlns="http://www.w3.org/2000/svg"><path fill="#505766" d="M512.233666 190.962986m22.627417 22.627417l0 0q22.627417 22.627417 0 45.254834l-339.305189 339.305189q-22.627417 22.627417-45.254834 0l0 0q-22.627417-22.627417 0-45.254834l339.305189-339.305189q22.627417-22.627417 45.254834 0Z"  /><path fill="#505766" d="M897.054307 575.514887m-22.627417 22.627417l0 0q-22.627417 22.627417-45.254834 0l-339.305189-339.305189q-22.627417-22.627417 0-45.254834l0 0q22.627417-22.627417 45.254834 0l339.305189 339.305189q22.627417 22.627417 0 45.254834Z"  /><path fill="#505766" d="M319.45 895.62m-32 0l0 0q-32 0-32-32l0-385.21q0-32 32-32l0 0q32 0 32 32l0 385.21q0 32-32 32Z"  /><path fill="#505766" d="M768.24 895.62m-32 0l0 0q-32 0-32-32l0-385.21q0-32 32-32l0 0q32 0 32 32l0 385.21q0 32-32 32Z"  /><path fill="#505766" d="M255.9 897.23m0-32.96l0 0q0-32.96 32.96-32.96l254.11 0q32.96 0 32.96 32.96l0 0q0 32.96-32.96 32.96l-254.11 0q-32.96 0-32.96-32.96Z"  /><path fill="#505766" d="M543.71 895.62m-32 0l0 0q-32 0-32-32l0-319.72q0-32 32-32l0 0q32 0 32 32l0 319.72q0 32-32 32Z"  /></svg>