<?xml version="1.0" standalone="no"?><!DOCTYPE svg PUBLIC "-//W3C//DTD SVG 1.1//EN" "http://www.w3.org/Graphics/SVG/1.1/DTD/svg11.dtd"><svg class="icon" width="64px" height="64.00px" viewBox="0 0 1024 1024" version="1.1" xmlns="http://www.w3.org/2000/svg"><path fill="#505766" d="M563.785143 21.211429L639.926857 0l281.819429 968.850286-76.214857 21.211428L563.785143 21.211429zM45.933714 961.828571L320.073143 0l76.141714 21.211429L122.148571 983.04l-76.141714-21.211429z"  /><path fill="#505766" d="M83.968 841.581714l677.814857-360.667428 38.034286 63.634285-677.741714 360.594286-38.034286-63.634286z"  /><path fill="#505766" d="M167.789714 544.548571l38.034286-63.634285 677.814857 360.594285-38.034286 63.634286-677.814857-360.594286zM678.034286 381.805714l228.425143-212.114285 53.394285 49.444571-228.498285 212.114286-53.394286-49.444572zM0.219429 219.209143l53.321142-49.517714 228.425143 212.187428-53.248 49.517714-228.498285-212.114285zM320.073143 0h319.853714v70.729143H320.073143V0z"  /><path fill="#505766" d="M0.219429 148.48h951.954285v70.729143H0.219429V148.48zM198.217143 325.339429h555.958857v70.656H198.217143v-70.656z"  /></svg>