<?xml version="1.0" standalone="no"?><!DOCTYPE svg PUBLIC "-//W3C//DTD SVG 1.1//EN" "http://www.w3.org/Graphics/SVG/1.1/DTD/svg11.dtd"><svg class="icon" width="64px" height="64.00px" viewBox="0 0 1024 1024" version="1.1" xmlns="http://www.w3.org/2000/svg"><path fill="#505766" d="M213.333333 640H170.666667c-21.333333 0-42.666667 21.333333-42.666667 42.666667v170.666666c0 21.333333 21.333333 42.666667 42.666667 42.666667h42.666666c21.333333 0 42.666667-21.333333 42.666667-42.666667v-170.666666c0-21.333333-21.333333-42.666667-42.666667-42.666667z m0 213.333333H170.666667v-170.666666h42.666666v170.666666z m213.333334-384h-42.666667c-21.333333 0-42.666667 21.333333-42.666667 42.666667v341.333333c0 21.333333 21.333333 42.666667 42.666667 42.666667h42.666667c21.333333 0 42.666667-21.333333 42.666666-42.666667V512c0-21.333333-21.333333-42.666667-42.666666-42.666667z m0 384h-42.666667V512h42.666667v341.333333z m213.333333-298.666666h-42.666667c-21.333333 0-42.666667 21.333333-42.666666 42.666666v256c0 21.333333 21.333333 42.666667 42.666666 42.666667h42.666667c21.333333 0 42.666667-21.333333 42.666667-42.666667v-256c0-21.333333-21.333333-42.666667-42.666667-42.666666z m0 298.666666h-42.666667v-256h42.666667v256z m256-426.666666v426.666666c0 21.333333-21.333333 42.666667-42.666667 42.666667h-42.666666c-21.333333 0-42.666667-21.333333-42.666667-42.666667V426.666667c0-21.333333 21.333333-42.666667 42.666667-42.666667h42.666666c21.333333 0 42.666667 21.333333 42.666667 42.666667z m0-298.666667v170.666667l-72.533333-72.533334-213.333334 213.333334c-4.266667 4.266667-8.533333 4.266667-17.066666 4.266666-4.266667 0-12.8-4.266667-17.066667-4.266666L469.333333 328.533333 162.133333 571.733333c-4.266667 4.266667-8.533333 4.266667-12.8 4.266667-4.266667 0-12.8-4.266667-17.066666-8.533333-8.533333-8.533333-4.266667-21.333333 4.266666-29.866667l320-256c8.533333-8.533333 21.333333-4.266667 29.866667 0L597.333333 396.8 793.6 196.266667 725.333333 128h170.666667z"  /></svg>