<?xml version="1.0" standalone="no"?><!DOCTYPE svg PUBLIC "-//W3C//DTD SVG 1.1//EN" "http://www.w3.org/Graphics/SVG/1.1/DTD/svg11.dtd"><svg class="icon" width="64px" height="64.00px" viewBox="0 0 1024 1024" version="1.1" xmlns="http://www.w3.org/2000/svg"><path fill="#505766" d="M928 76.8h-832c-19.2 0-32 12.8-32 32v582.4c0 19.2 12.8 32 32 32H256c19.2 0 32-12.8 32-32s-12.8-32-32-32H128V140.8h768v518.4H512c-19.2 0-32 12.8-32 32v192H320c-19.2 0-32 12.8-32 32s12.8 32 32 32h371.2c19.2 0 32-12.8 32-32s-12.8-32-32-32H544v-160h384c19.2 0 32-12.8 32-32V108.8c0-19.2-12.8-32-32-32zM390.4 409.6c0-38.4-25.6-64-64-64s-64 25.6-64 64 25.6 64 64 64 64-32 64-64zM524.8 473.6c19.2 0 32-12.8 44.8-25.6 6.4-12.8 6.4-32 6.4-51.2-6.4-32-38.4-57.6-76.8-51.2-32 6.4-57.6 38.4-51.2 70.4 0 19.2 12.8 32 25.6 44.8 12.8 6.4 25.6 12.8 38.4 12.8h12.8zM704 473.6c32-6.4 57.6-38.4 51.2-70.4 0-19.2-12.8-32-25.6-44.8-12.8-12.8-32-12.8-44.8-12.8-19.2 0-32 12.8-44.8 25.6-6.4 12.8-12.8 32-6.4 44.8s12.8 32 25.6 44.8c12.8 6.4 25.6 12.8 38.4 12.8h6.4z" /></svg>