<?xml version="1.0" standalone="no"?><!DOCTYPE svg PUBLIC "-//W3C//DTD SVG 1.1//EN" "http://www.w3.org/Graphics/SVG/1.1/DTD/svg11.dtd"><svg class="icon" width="64px" height="64.00px" viewBox="0 0 1024 1024" version="1.1" xmlns="http://www.w3.org/2000/svg"><path fill="#505766" d="M977.554286 589.238857a38.985143 38.985143 0 0 0-39.058286 38.912 38.985143 38.985143 0 0 0 78.116571 0 38.985143 38.985143 0 0 0-39.058285-38.912z m-31.670857-156.525714a38.985143 38.985143 0 1 0 78.116571 0 38.985143 38.985143 0 0 0-78.116571 0z m-317.074286 503.954286a39.716571 39.716571 0 0 0-40.009143 39.350857c0 21.723429 17.92 39.350857 40.009143 39.350857a39.716571 39.716571 0 0 0 40.082286-39.350857 39.716571 39.716571 0 0 0-40.082286-39.350857z m277.942857-188.854858a39.277714 39.277714 0 0 0-39.058286 39.424c0 21.723429 17.481143 39.350857 39.058286 39.350858a39.277714 39.277714 0 0 0 39.058286-39.350858 39.204571 39.204571 0 0 0-39.058286-39.424z m-118.710857 117.686858a39.497143 39.497143 0 0 0-39.058286 39.862857c0 22.016 17.481143 39.862857 39.058286 39.862857a39.497143 39.497143 0 0 0 39.058286-39.862857 39.497143 39.497143 0 0 0-39.058286-39.862857zM512 950.857143a436.077714 436.077714 0 0 1-310.345143-128.512A437.394286 437.394286 0 0 1 73.142857 512a436.077714 436.077714 0 0 1 128.512-310.345143A437.467429 437.467429 0 0 1 512 73.142857a436.077714 436.077714 0 0 1 310.345143 128.512 437.467429 437.467429 0 0 1 94.061714 139.556572l1.462857 3.584 67.657143-27.867429A512.146286 512.146286 0 0 0 0 512a512 512 0 0 0 512 512v-73.142857z"  /><path fill="#505766" d="M697.051429 443.684571H621.714286c-16.310857 0-61.44 8.118857-77.312-1.462857-2.998857-10.971429 7.021714-31.012571 9.654857-40.521143l23.259428-83.163428 33.938286-121.051429c4.388571-15.798857-16.310857-22.528-25.014857-10.605714C496.054857 311.149714 405.650286 435.346286 315.245714 559.542857c-6.290286 8.704 2.194286 20.626286 11.849143 20.626286h109.933714c7.753143 0 36.717714-4.534857 41.545143 2.267428 4.388571 6.070857-4.096 23.698286-5.997714 30.500572l-59.830857 213.577143c-4.461714 15.725714 16.310857 22.454857 24.941714 10.532571L708.754286 464.457143c6.363429-8.777143-2.194286-20.772571-11.702857-20.772572z"  /></svg>