<?xml version="1.0" standalone="no"?><!DOCTYPE svg PUBLIC "-//W3C//DTD SVG 1.1//EN" "http://www.w3.org/Graphics/SVG/1.1/DTD/svg11.dtd"><svg t="1606787212175" class="icon" viewBox="0 0 1024 1024" version="1.1" xmlns="http://www.w3.org/2000/svg" p-id="7406" xmlns:xlink="http://www.w3.org/1999/xlink" width="32" height="32"><defs><style type="text/css"></style></defs><path d="M513 944.73c-109.39 0-212.04-13.07-289.03-36.8-36.01-11.1-65.24-24.4-84.52-38.45-12.07-8.79-26.45-22.47-26.45-37.67s14.38-28.88 26.45-37.67c19.28-14.05 48.51-27.35 84.52-38.45 76.99-23.73 179.64-36.8 289.03-36.8 109.39 0 212.04 13.07 289.03 36.8 36.01 11.1 65.24 24.4 84.52 38.45 12.07 8.79 26.45 22.47 26.45 37.67s-14.38 28.88-26.45 37.67c-19.28 14.05-48.51 27.35-84.52 38.45-76.99 23.73-179.64 36.8-289.03 36.8z" fill="#E6E6E6" p-id="7407"></path><path d="M513 733.88c54.73 0 107.78 3.3 157.66 9.8 47.74 6.22 90.45 15.09 126.95 26.34 34.45 10.62 62.15 23.15 80.11 36.24 12.7 9.26 20.28 18.81 20.28 25.55s-7.58 16.29-20.28 25.55c-17.96 13.09-45.66 25.62-80.11 36.24-36.5 11.25-79.21 20.11-126.95 26.34-49.88 6.5-102.92 9.8-157.66 9.8s-107.78-3.3-157.66-9.8c-47.74-6.22-90.45-15.09-126.95-26.34-34.45-10.62-62.15-23.15-80.11-36.24-12.7-9.26-20.28-18.81-20.28-25.55s7.58-16.29 20.28-25.55c17.96-13.09 45.66-25.62 80.11-36.24 36.5-11.25 79.21-20.11 126.95-26.34 49.88-6.5 102.93-9.8 157.66-9.8m0-30c-229.2 0-415 57.27-415 127.92s185.8 127.92 415 127.92 415-57.27 415-127.92-185.8-127.92-415-127.92z" fill="#1A1A1A" p-id="7408"></path><path d="M515.04 901.45c-69.65 0-134.98-8.31-183.94-23.4-51.01-15.72-69.19-34.24-69.19-46.32s18.18-30.6 69.19-46.32c48.96-15.09 114.29-23.4 183.94-23.4 69.65 0 134.98 8.31 183.94 23.4 51.01 15.72 69.19 34.24 69.19 46.32s-18.18 30.6-69.19 46.32c-48.97 15.08-114.29 23.4-183.94 23.4z" fill="#E6E6E6" p-id="7409"></path><path d="M515.04 773.99c68.49 0 132.56 8.12 180.4 22.87 49.92 15.39 60.72 31.65 60.72 34.85s-10.81 19.47-60.72 34.85c-47.85 14.75-111.92 22.87-180.4 22.87s-132.56-8.12-180.4-22.87c-49.92-15.39-60.72-31.65-60.72-34.85s10.81-19.47 60.72-34.85c47.84-14.74 111.91-22.87 180.4-22.87m0-24c-146.43 0-265.13 36.59-265.13 81.73s118.7 81.73 265.13 81.73 265.13-36.59 265.13-81.73-118.71-81.73-265.13-81.73z" fill="#1A1A1A" p-id="7410"></path><path d="M509.88 464.21c29.46 0 53.33-23.61 53.33-52.63 0-29.08-23.85-52.6-53.33-52.6-29.49 0-53.33 23.55-53.33 52.63 0 28.99 23.84 52.6 53.33 52.6z m-22.6 38.39l-32.94 292.23h109.91l-33.06-292.2h-43.91v-0.03z m246.67 9.5a1774.72 1774.72 0 0 0-137.39-90.02 7.09 7.09 0 0 0-6.72-0.29 6.919 6.919 0 0 0-4.04 5.23 73.815 73.815 0 0 1-27.48 45.95 7.149 7.149 0 0 0-2.71 6.11c0.18 2.33 1.57 4.45 3.63 5.7 91.59 49.78 199.82 103.02 230.82 103.81 3.37-0.09 7.97-0.55 11.28-5.14 0.93-1.64 1.42-3.49 1.42-5.38-2.75-17.09-29.53-35.73-68.81-65.97zM483.8 344.82a7.213 7.213 0 0 1-9.66-6.77c1.36-85.52 8.63-174.47 18.99-215.12 4.57-13.08 4.51-23.09 17.77-25.97 13.37 2.91 13.2 12.85 17.79 25.97 3.55 13.64 6.63 32.42 9.22 54.87 5.32 44.63 8.95 103.34 9.8 160.22 0 2.36-1.15 4.58-3.08 5.93-1.17 0.88-2.6 1.35-4.07 1.34-0.87 0.01-1.74-0.15-2.56-0.47a77.509 77.509 0 0 0-27.1-5.15c-9.48 0-18.55 1.95-27.1 5.15z m-19.43 133.03a7.32 7.32 0 0 1-3.72 5.61c-90.95 49.43-195.02 97.82-226.13 98.52-3.63-0.09-8.38-0.23-11.78-5.23a9.76 9.76 0 0 1-1.51-5.38c2.77-17.16 28.79-34.66 67.35-63.6 38.29-27.42 88.48-59.69 136.52-87.9a7.065 7.065 0 0 1 10.67 5.06 74.432 74.432 0 0 0 26.08 46.76 7.133 7.133 0 0 1 2.52 6.16z m0 0" fill="#1A1A1A" p-id="7411"></path></svg>