<?xml version="1.0" standalone="no"?><!DOCTYPE svg PUBLIC "-//W3C//DTD SVG 1.1//EN" "http://www.w3.org/Graphics/SVG/1.1/DTD/svg11.dtd"><svg class="icon" width="64px" height="57.59px" viewBox="0 0 1138 1024" version="1.1" xmlns="http://www.w3.org/2000/svg"><path fill="#505766" d="M591.416889 58.083556c94.264889 0 181.873778 28.899556 254.520889 78.279111 22.641778-8.419556 45.568-15.416889 68.608-21.048889C826.368 43.292444 713.898667 0 591.416889 0 457.841778 0 336.384 51.825778 245.134222 135.907556c22.186667 5.290667 44.202667 11.889778 66.048 19.740444C388.437333 94.72 485.603556 58.083556 591.416889 58.083556M1028.721778 392.021333C1039.246222 430.307556 1045.333333 470.414222 1045.333333 512c0 246.670222-197.859556 447.544889-443.164444 453.347556l0-497.777778c100.750222 19.512889 208.384 6.940444 306.289778-44.487111 108.316444-56.888889 184.604444-150.300444 222.833778-257.024-109.568-29.127111-229.774222-19.342222-338.033778 37.546667-106.552889 55.978667-181.987556 147.399111-220.842667 252.017778l-3.982222 0c-38.798222-104.618667-114.232889-196.039111-220.842667-252.017778-108.259556-56.888889-228.522667-66.673778-338.090667-37.546667C47.672889 272.725333 124.017778 366.136889 232.334222 423.025778 330.24 474.453333 437.873778 487.025778 538.567111 467.512889l0 495.047111c-225.450667-26.282667-401.066667-218.168889-401.066667-450.56 0-30.776889 3.185778-60.871111 9.045333-89.941333C129.308444 408.746667 112.810667 394.808889 97.28 380.017778 86.016 422.172444 79.416889 466.318222 79.416889 512c0 282.339556 229.660444 512 512 512 282.339556 0 512-229.660444 512-512 0-57.059556-9.841778-111.786667-27.136-163.100444C1061.262222 363.975111 1045.504 378.424889 1028.721778 392.021333" /></svg>