<?xml version="1.0" standalone="no"?><!DOCTYPE svg PUBLIC "-//W3C//DTD SVG 1.1//EN" "http://www.w3.org/Graphics/SVG/1.1/DTD/svg11.dtd"><svg class="icon" width="64px" height="64.00px" viewBox="0 0 1024 1024" version="1.1" xmlns="http://www.w3.org/2000/svg"><path fill="#505766" d="M89.043478 129.113043a4.452174 4.452174 0 0 0-4.452174 4.452174v267.130435a4.452174 4.452174 0 0 0 4.452174 4.452174h267.130435a4.452174 4.452174 0 0 0 4.452174-4.452174V133.565217a4.452174 4.452174 0 0 0-4.452174-4.452174H89.043478z m0-80.13913h267.130435c46.747826 0 84.591304 37.843478 84.591304 84.591304v267.130435A84.591304 84.591304 0 0 1 356.173913 485.286957H89.043478A84.591304 84.591304 0 0 1 4.452174 400.695652V133.565217C4.452174 86.817391 42.295652 48.973913 89.043478 48.973913z m0 614.4a4.452174 4.452174 0 0 0-4.452174 4.452174v267.130435a4.452174 4.452174 0 0 0 4.452174 4.452174h267.130435a4.452174 4.452174 0 0 0 4.452174-4.452174v-267.130435a4.452174 4.452174 0 0 0-4.452174-4.452174H89.043478z m0-80.13913h267.130435c46.747826 0 84.591304 37.843478 84.591304 84.591304v267.130435A84.591304 84.591304 0 0 1 356.173913 1019.547826H89.043478A84.591304 84.591304 0 0 1 4.452174 934.956522v-267.130435c0-46.747826 37.843478-84.591304 84.591304-84.591304z m534.26087 80.13913a4.452174 4.452174 0 0 0-4.452174 4.452174v267.130435a4.452174 4.452174 0 0 0 4.452174 4.452174h267.130435a4.452174 4.452174 0 0 0 4.452174-4.452174v-267.130435a4.452174 4.452174 0 0 0-4.452174-4.452174h-267.130435z m0-80.13913h267.130435c46.747826 0 84.591304 37.843478 84.591304 84.591304v267.130435a84.591304 84.591304 0 0 1-84.591304 84.591304h-267.130435a84.591304 84.591304 0 0 1-84.591305-84.591304v-267.130435c0-46.747826 37.843478-84.591304 84.591305-84.591304z m134.455652-478.875826a4.452174 4.452174 0 0 0-6.277565 0l-157.384348 157.384347a4.452174 4.452174 0 0 0 0 6.277566l157.384348 157.428869a4.452174 4.452174 0 0 0 6.277565 0l157.42887-157.428869a4.452174 4.452174 0 0 0 0-6.277566L757.76 104.358957z m56.676174-56.676174l157.428869 157.384347a84.591304 84.591304 0 0 1 0 119.629913l-157.428869 157.42887a84.591304 84.591304 0 0 1-119.629913 0l-157.384348-157.42887a84.591304 84.591304 0 0 1 0-119.629913l157.384348-157.384347a84.591304 84.591304 0 0 1 119.629913 0z"  /></svg>