<?xml version="1.0" standalone="no"?><!DOCTYPE svg PUBLIC "-//W3C//DTD SVG 1.1//EN" "http://www.w3.org/Graphics/SVG/1.1/DTD/svg11.dtd"><svg class="icon" width="64px" height="64.00px" viewBox="0 0 1024 1024" version="1.1" xmlns="http://www.w3.org/2000/svg"><path fill="#505766" d="M180.24 312.62c51.32 0 93.08-41.75 93.08-93.08 0-51.31-41.76-93.06-93.08-93.06-51.31 0-93.08 41.75-93.08 93.07 0.01 51.32 41.77 93.07 93.08 93.07z m0-121.39c15.62 0 28.33 12.69 28.33 28.31s-12.7 28.33-28.33 28.33c-15.62 0-28.33-12.71-28.33-28.33 0-15.61 12.72-28.31 28.33-28.31z m0 0"  /><path fill="#505766" d="M1023.26 126.75c0-47.07-38.28-85.36-85.36-85.36H85.36c-47.07 0-85.36 38.29-85.36 85.36v185.61c0 20.01 6.93 38.42 18.51 52.99C6.94 379.91 0 398.32 0 418.33v185.58c0 20.01 6.93 38.43 18.51 53-11.57 14.57-18.51 32.99-18.51 53V895.5c0 47.07 38.29 85.36 85.36 85.36h852.53c47.07 0 85.37-38.28 85.37-85.36V709.91c0-20.02-6.94-38.43-18.51-52.99 11.57-14.58 18.51-32.99 18.51-53V418.33c0-20.01-6.94-38.42-18.51-52.99 11.57-14.57 18.51-32.97 18.51-52.99v-185.6z m-958.51 0c0-11.36 9.24-20.61 20.61-20.61h852.53c11.38 0 20.62 9.25 20.62 20.61v185.61c0 11.36-9.24 20.61-20.62 20.61H85.36c-11.38 0-20.61-9.25-20.61-20.61V126.75zM958.51 418.33v185.58c0 11.38-9.23 20.63-20.61 20.63H85.36c-11.38 0-20.61-9.25-20.61-20.63V418.33c0-11.36 9.23-20.61 20.61-20.61h852.53c11.39 0 20.62 9.25 20.62 20.61z m0 477.17c0 11.38-9.23 20.61-20.61 20.61H85.36c-11.38 0-20.61-9.23-20.61-20.61V709.91c0-11.37 9.23-20.61 20.61-20.61h852.53c11.38 0 20.61 9.25 20.61 20.61V895.5z m0 0"  /><path fill="#505766" d="M180.24 604.2c51.32 0 93.08-41.75 93.08-93.08s-41.76-93.08-93.08-93.08c-51.31 0-93.08 41.75-93.08 93.08 0.01 51.33 41.77 93.08 93.08 93.08z m0-121.41c15.62 0 28.33 12.71 28.33 28.33 0 15.62-12.7 28.33-28.33 28.33-15.62 0-28.33-12.71-28.33-28.33 0-15.61 12.72-28.33 28.33-28.33z m0 226.83c-51.31 0-93.08 41.75-93.08 93.08 0 51.32 41.77 93.08 93.08 93.08 51.32 0 93.08-41.76 93.08-93.08s-41.76-93.08-93.08-93.08z m0 121.41c-15.62 0-28.33-12.71-28.33-28.33 0-15.62 12.71-28.33 28.33-28.33s28.33 12.71 28.33 28.33c0 15.62-12.7 28.33-28.33 28.33z m0 0"  /></svg>