<?xml version="1.0" standalone="no"?><!DOCTYPE svg PUBLIC "-//W3C//DTD SVG 1.1//EN" "http://www.w3.org/Graphics/SVG/1.1/DTD/svg11.dtd"><svg class="icon" width="64px" height="64.00px" viewBox="0 0 1024 1024" version="1.1" xmlns="http://www.w3.org/2000/svg"><path d="M831.9 471.3l0.1-80.3v-86.8L622.2 64H64v832h461c47.8 41.4 108.1 64 171.9 64 70.3 0 136.3-27.4 186-77 49.7-49.7 77.1-115.7 77.1-186 0-95.7-51.4-179.7-128.1-225.7zM608 145l127.5 146H608V145zM128 832V128h416v227h224v36l-0.1 52.7c-22.6-6.4-46.4-9.7-71-9.7-9.1 0-18.1 0.5-27 1.4-43.3 4.4-83.6 19.4-118.1 42.4-46.4 30.8-82.5 76-102 129.2-7.4 20.3-12.4 41.7-14.6 64-0.9 8.6-1.3 17.3-1.3 26.1 0 48.3 12.9 94.6 37.2 135H128z m568.9 64C587.3 896 498 806.7 498 697s89.3-199 198.9-199C806.7 498 896 587.3 896 697s-89.3 199-199.1 199z" fill="#727272" /><path d="M230 223.6h182.9v64H230z" fill="#497CAD" /><path d="M670 413.8v21.6c-43.3 4.4-83.6 19.4-118.1 42.4H230v-64h440zM449.9 606.9c-7.4 20.3-12.4 41.7-14.6 64H230v-64h219.9z" fill="#B2B2B2" /><path d="M662.9 807.5l-7.1-7-100.5-100.4 45.2-45.3 62.3 62.3 130.7-130.6 45.2 45.3z" fill="#669E8B" /></svg>