<?xml version="1.0" standalone="no"?><!DOCTYPE svg PUBLIC "-//W3C//DTD SVG 1.1//EN" "http://www.w3.org/Graphics/SVG/1.1/DTD/svg11.dtd"><svg class="icon" width="64px" height="60.68px" viewBox="0 0 1080 1024" version="1.1" xmlns="http://www.w3.org/2000/svg"><path fill="#505766" d="M653.7 85.83c-235.05 0-426.29 191.25-426.29 426.3s191.24 426.3 426.29 426.3c235.06 0 426.3-191.25 426.3-426.3S888.76 85.83 653.7 85.83z m0 779.98c-195.01 0-353.67-158.65-353.67-353.68S458.69 158.45 653.7 158.45c195.02 0 353.68 158.65 353.68 353.68S848.72 865.81 653.7 865.81z"  /><path fill="#505766" d="M866.78 634.19L695.93 533.61V302.59c0-20.06-16.26-36.31-36.31-36.31s-36.31 16.26-36.31 36.31v253.66c0 17.06 11.8 31.26 27.66 35.16l178.98 105.36c17.28 10.17 39.54 4.41 49.71-12.87 10.17-17.28 4.4-39.54-12.88-49.71zM44.76 324.51h186.42c20.05 0 36.31-16.26 36.31-36.31s-16.26-36.31-36.31-36.31H44.76c-20.05 0-36.31 16.26-36.31 36.31s16.26 36.31 36.31 36.31zM231.18 703.25H44.76c-20.05 0-36.31 16.26-36.31 36.31s16.26 36.31 36.31 36.31h186.42c20.05 0 36.31-16.26 36.31-36.31s-16.25-36.31-36.31-36.31zM36.31 550.19h118.8c20.05 0 36.31-16.26 36.31-36.31s-16.26-36.31-36.31-36.31H36.31c-20.05 0-36.31 16.26-36.31 36.31 0 20.06 16.26 36.31 36.31 36.31z"  /></svg>