<?xml version="1.0" standalone="no"?><!DOCTYPE svg PUBLIC "-//W3C//DTD SVG 1.1//EN" "http://www.w3.org/Graphics/SVG/1.1/DTD/svg11.dtd"><svg class="icon" width="64px" height="64.00px" viewBox="0 0 1024 1024" version="1.1" xmlns="http://www.w3.org/2000/svg"><path fill="#505766" d="M955.25 789.29c-98.9-178.84-139.78-247.66-158.18-275.25 18.2-40.35 27.6-84.1 27.59-128.37 0-173-140.75-313.69-313.69-313.69S197.28 212.67 197.28 385.67c0 46.44 10.22 90.5 28.39 130.19-18.96 28.78-60.12 98.39-156.93 273.43-5.28 9.59-4.6 21.35 1.7 30.21 6.3 8.85 17.2 13.34 28.05 11.47l143.02-25.16 53.82 128.77a28.398 28.398 0 0 0 26.17 17.43c10.1 0 19.48-5.39 24.58-14.19l136.66-236.7c0.56-0.97 0.91-2.05 1.36-3.07 8.86 0.74 17.77 1.25 26.8 1.25 9.71 0 19.31-0.51 28.79-1.36 0.46 1.08 0.85 2.16 1.42 3.18l136.66 236.7a28.451 28.451 0 0 0 24.58 14.19c0.63 0 1.2 0 1.82-0.05a28.308 28.308 0 0 0 24.35-17.38l53.83-128.77 143.02 25.16c10.79 1.87 21.68-2.56 28.04-11.47a28.187 28.187 0 0 0 1.84-30.21z m-629.64 70.58l-40.48-96.8c-5.11-12.26-18.03-19.33-31.12-17.03l-106.74 18.73c42.69-76.54 85.45-151.65 110.71-193.89 40.77 55.53 99.3 97.15 167.21 116.45l-99.58 172.54z m-38.83-348.95c-0.82-3.34-2.23-6.51-4.15-9.37-0.62-0.91-1.36-1.65-2.1-2.49a255.476 255.476 0 0 1-26.46-113.44c0-141.66 115.26-256.91 256.91-256.91s256.91 115.25 256.91 256.91c0 141.66-115.26 256.91-256.91 256.91-96.23 0.05-180.2-53.09-224.2-131.61z m483.16 235.11c-13.17-2.27-26.01 4.77-31.12 17.03l-40.48 96.8-99.87-172.99c67.79-19.7 126.09-61.72 166.58-117.53 25.15 41.9 68.41 117.98 111.62 195.42l-106.73-18.73z m0 0"  /><path fill="#505766" d="M369.92 480.38l51.21-6.83c5.88 29.02 15.88 49.93 30.01 62.73 14.13 12.81 31.34 19.2 51.63 19.2 24.08 0 44.42-8.34 61.02-25.03 16.59-16.69 24.89-37.36 24.89-62.02 0-23.52-7.68-42.91-23.05-58.18-15.36-15.27-34.9-22.9-58.6-22.9-9.67 0-21.72 1.9-36.13 5.69l5.69-44.95c3.42 0.38 6.16 0.57 8.25 0.57 21.81 0 41.44-5.69 58.89-17.07 17.45-11.38 26.17-28.92 26.17-52.63 0-18.78-6.36-34.33-19.06-46.66-12.71-12.32-29.12-18.49-49.22-18.49-19.91 0-36.51 6.26-49.78 18.78-13.28 12.52-21.81 31.29-25.6 56.33l-51.21-9.1c6.26-34.32 20.48-60.92 42.67-79.8 22.19-18.87 49.79-28.31 82.79-28.31 22.76 0 43.71 4.88 62.87 14.65 19.15 9.77 33.81 23.09 43.95 39.97s15.22 34.8 15.22 53.77c0 18.02-4.84 34.42-14.51 49.22-9.67 14.79-24 26.56-42.96 35.28 24.65 5.69 43.81 17.49 57.46 35.42 13.66 17.93 20.49 40.35 20.49 67.28 0 36.41-13.28 67.28-39.83 92.6-26.56 25.32-60.12 37.98-100.71 37.98-36.61 0-67-10.9-91.18-32.71-24.16-21.82-37.95-50.09-41.37-84.79z m0 0"  /></svg>