<?xml version="1.0" standalone="no"?><!DOCTYPE svg PUBLIC "-//W3C//DTD SVG 1.1//EN" "http://www.w3.org/Graphics/SVG/1.1/DTD/svg11.dtd"><svg class="icon" width="64px" height="64.00px" viewBox="0 0 1024 1024" version="1.1" xmlns="http://www.w3.org/2000/svg"><path fill="#505766" d="M955.25 789.29c-98.9-178.84-139.78-247.66-158.18-275.25 18.2-40.35 27.6-84.1 27.59-128.37 0-173-140.75-313.69-313.69-313.69S197.28 212.67 197.28 385.67c0 46.44 10.22 90.5 28.39 130.19-18.96 28.78-60.12 98.39-156.93 273.43-5.28 9.59-4.6 21.35 1.7 30.21 6.3 8.85 17.2 13.34 28.05 11.47l143.02-25.16 53.82 128.77a28.398 28.398 0 0 0 26.17 17.43c10.1 0 19.48-5.39 24.58-14.19l136.66-236.7c0.56-0.97 0.91-2.05 1.36-3.07 8.86 0.74 17.77 1.25 26.8 1.25 9.71 0 19.31-0.51 28.79-1.36 0.46 1.08 0.85 2.16 1.42 3.18l136.66 236.7a28.451 28.451 0 0 0 24.58 14.19c0.63 0 1.2 0 1.82-0.05a28.308 28.308 0 0 0 24.35-17.38l53.83-128.77 143.02 25.16c10.79 1.87 21.68-2.56 28.04-11.47a28.187 28.187 0 0 0 1.84-30.21z m-629.64 70.58l-40.48-96.8c-5.11-12.26-18.03-19.33-31.12-17.03l-106.74 18.73c42.69-76.54 85.45-151.65 110.71-193.89 40.77 55.53 99.3 97.15 167.21 116.45l-99.58 172.54z m-38.83-348.95c-0.82-3.34-2.23-6.51-4.15-9.37-0.62-0.91-1.36-1.65-2.1-2.49a255.476 255.476 0 0 1-26.46-113.44c0-141.66 115.26-256.91 256.91-256.91s256.91 115.25 256.91 256.91c0 141.66-115.26 256.91-256.91 256.91-96.23 0.05-180.2-53.09-224.2-131.61z m483.16 235.11c-13.17-2.27-26.01 4.77-31.12 17.03l-40.48 96.8-99.87-172.99c67.79-19.7 126.09-61.72 166.58-117.53 25.15 41.9 68.41 117.98 111.62 195.42l-106.73-18.73z m0 0"  /><path fill="#505766" d="M644.5 532.96v49.21H368.83c-0.38-12.32 1.61-24.18 5.98-35.56 7.01-18.77 18.25-37.27 33.71-55.47 15.45-18.21 37.79-39.26 67-63.16 45.32-37.17 75.96-66.61 91.89-88.33 15.93-21.71 23.89-42.24 23.89-61.59 0-20.29-7.25-37.41-21.76-51.35-14.51-13.94-33.43-20.91-56.75-20.91-24.66 0-44.38 7.4-59.17 22.19-14.79 14.79-22.29 35.27-22.48 61.45l-52.63-5.4c3.6-39.26 17.16-69.18 40.68-89.76s55.09-30.87 94.73-30.87c40.01 0 71.69 11.09 95.02 33.28 23.32 22.19 34.99 49.69 34.99 82.5 0 16.69-3.41 33.1-10.24 49.22-6.82 16.12-18.16 33.1-33.99 50.92-15.84 17.83-42.15 42.29-78.94 73.4-30.72 25.79-50.45 43.29-59.17 52.49-8.73 9.2-15.93 18.45-21.62 27.74H644.5z m0 0"  /></svg>