<?xml version="1.0" standalone="no"?><!DOCTYPE svg PUBLIC "-//W3C//DTD SVG 1.1//EN" "http://www.w3.org/Graphics/SVG/1.1/DTD/svg11.dtd"><svg class="icon" width="64px" height="56.89px" viewBox="0 0 1152 1024" version="1.1" xmlns="http://www.w3.org/2000/svg"><path fill="#505766" d="M291.190225 336.119967h-170.619272a24.455429 24.455429 0 0 0-24.171064 20.474312l-38.673702 210.430436 389.865038 48.910858c-65.404054-83.319078-134.50486-189.103027-156.401-279.815606zM764.37434 655.746737l92.703138 11.658984-11.090252-60.285477-8.530964-46.351569c-24.171064 34.40822-49.479589 66.541516-73.081922 94.978062zM720.01333 707.50125c-14.218273 15.924465-26.730353 28.436545-36.114413 39.526798l-20.474313 21.611774-41.232991 43.79228L580.674257 768.071091l-20.758678-21.611774c-14.218273-15.071369-35.545682-38.389336-60.285476-67.110247l-219.245765-28.436546L352.328798 910.253818h519.535684a25.02416 25.02416 0 0 0 24.171064-28.436545l-28.436546-154.694807zM220.098861 644.656484l-172.60983-21.611774L0.284365 881.817273a25.02416 25.02416 0 0 0 24.739795 28.436545h268.725354l-73.081922-260.478756a31.2802 31.2802 0 0 1-0.568731-5.118578zM622.191613 389.865037a113.746182 113.746182 0 1 0-113.746181-113.746181 113.746182 113.746182 0 0 0 113.746181 113.746181z m0-170.619272a56.873091 56.873091 0 1 1-56.87309 56.873091 56.873091 56.873091 0 0 1 56.87309-56.873091z"  /><path fill="#505766" d="M622.191613 729.681755l20.758679-21.89614c26.730353-28.436545 260.478756-279.531241 260.478755-426.548181a281.237434 281.237434 0 0 0-562.474868 0c0 146.732574 234.032769 398.111636 260.763122 426.548181z m0-672.524299a224.648709 224.648709 0 0 1 224.364344 224.364344c0 95.831158-146.732574 278.39378-224.364344 364.840877-77.631769-85.309636-224.364343-269.00972-224.364343-364.840877A224.648709 224.648709 0 0 1 622.191613 57.157456z"  /></svg>