<?xml version="1.0" standalone="no"?><!DOCTYPE svg PUBLIC "-//W3C//DTD SVG 1.1//EN" "http://www.w3.org/Graphics/SVG/1.1/DTD/svg11.dtd"><svg class="icon" width="64px" height="64.00px" viewBox="0 0 1024 1024" version="1.1" xmlns="http://www.w3.org/2000/svg"><path fill="#505766" d="M782 99m41.5 0l0 0q41.5 0 41.5 41.5l0 747q0 41.5-41.5 41.5l0 0q-41.5 0-41.5-41.5l0-747q0-41.5 41.5-41.5Z"  /><path fill="#505766" d="M603.5 858.83L244.89 514 603.5 169.17a40.31 40.31 0 0 0 12.5-29c0-36.58-46-54.9-72.88-29L184.51 455.94c-33.35 32.07-33.35 84.05 0 116.12l358.61 344.83c26.89 25.87 72.88 7.55 72.88-29a40.31 40.31 0 0 0-12.5-29.06z"  /></svg>