<?xml version="1.0" standalone="no"?><!DOCTYPE svg PUBLIC "-//W3C//DTD SVG 1.1//EN" "http://www.w3.org/Graphics/SVG/1.1/DTD/svg11.dtd"><svg class="icon" width="64px" height="64.00px" viewBox="0 0 1024 1024" version="1.1" xmlns="http://www.w3.org/2000/svg"><path fill="#505766" d="M860.974615 92.309414H164.151109c-42.777533 0-78.391365 33.771737-78.391365 76.753948v511.181291c0 20.877074 8.494104 40.8331 23.128523 55.365181 14.532081 14.429742 34.385769 22.821507 55.262842 22.821507h213.171298c-5.219268 74.40016-34.692784 118.610434-36.125525 120.759544-7.26604 10.029182-8.187088 23.3332-2.558465 34.385769s17.090546 18.113932 29.575854 18.113932H657.013792c12.38297 0 23.947232-7.368379 29.575854-18.420948s4.707575-23.947232-2.660803-33.976414c-1.43274-2.149111-31.008595-46.564062-36.227864-120.964221h213.273636c43.289226 0 77.265641-35.613832 77.265641-78.289027V169.063362c0-43.084549-33.976414-76.753948-77.265641-76.753948z m-696.823506 65.906057h696.823506c6.652009 0 11.359584 4.40056 11.359584 10.847891v353.682191H151.665801V169.063362c0-6.754347 6.037977-10.847891 12.485308-10.847891z m439.85129 707.671397H421.020987c10.131521-26.505697 19.853688-62.426544 22.412153-107.353188h138.157106c2.558465 44.926644 12.280632 80.847492 22.412153 107.353188z m256.972216-173.361583H164.151109c-6.652009 0-12.485309-5.730961-12.485308-12.280632v-91.593044h720.668398v91.593044c0 6.242654-4.40056 12.280632-11.359584 12.280632z"  /></svg>