<?xml version="1.0" standalone="no"?><!DOCTYPE svg PUBLIC "-//W3C//DTD SVG 1.1//EN" "http://www.w3.org/Graphics/SVG/1.1/DTD/svg11.dtd"><svg class="icon" width="64px" height="64.00px" viewBox="0 0 1024 1024" version="1.1" xmlns="http://www.w3.org/2000/svg"><path fill="#505766" d="M502.53824 793.06752L810.04544 485.5808a176.47616 176.47616 0 1 0-249.56928-249.56928l-57.93792 57.91744-57.91744-57.91744A176.47616 176.47616 0 0 0 195.05152 485.5808l307.48672 307.48672z m28.9792 86.89664a40.96 40.96 0 0 1-57.93792 0L137.1136 543.49824c-100.90496-100.90496-100.90496-264.4992 0-365.42464 100.92544-100.90496 264.51968-100.90496 365.42464 0 100.92544-100.90496 264.51968-100.90496 365.42464 0 100.92544 100.92544 100.92544 264.51968 0 365.42464l-336.44544 336.4864z"  /></svg>