<?xml version="1.0" standalone="no"?><!DOCTYPE svg PUBLIC "-//W3C//DTD SVG 1.1//EN" "http://www.w3.org/Graphics/SVG/1.1/DTD/svg11.dtd"><svg class="icon" width="64px" height="43.92px" viewBox="0 0 1492 1024" version="1.1" xmlns="http://www.w3.org/2000/svg"><path fill="#505766" d="M956.003 189.832h43.808v518.389h-43.808zM460.14 449.027V0L350.621 83.964V814.09l109.518 83.964z m208.086 0V83.964L544.104 0v898.053l124.12-83.964zM478.392 14.602h47.458v868.849h-47.458z"  /><path fill="#505766" d="M1433.472 947.337V537.565h6.1V390.522h-215.92v-54.457h-87.118v-13.2H1032.86v75.575h-24.569v126.195h24.57v75.575h103.673v-13.2h87.119v-49.441h96.062v409.768H150.026V509.16h6.097V390.515H30.176V509.16h6.093v438.177H0V1024h1492.141v-76.663h-58.669z m-88.202-409.772h62.648v409.772h-62.648V537.565zM61.827 509.16h62.648v438.177H61.827V509.16z m1404.76 489.286H25.554V972.89h1441.037v25.555z"  /><path fill="#505766" d="M937.75 449.027V173.003L675.5 109.52v679.016l262.25-63.485V449.027z m-132.16 285.99l-11.09-9.5 39.054-45.6 11.09 9.5-39.054 45.6z m34.813-314.228l-43.972-7.05 2.31-14.42 43.973 7.05-2.311 14.42z m1.248 22.838v14.603h-44.158v-14.603h44.158z m-1.248 37.441l2.31 14.42-43.971 7.05-2.31-14.42 43.97-7.05z m-0.902 39.902l3.797 14.098-43.654 11.755-3.797-14.098 43.654-11.755z m0-140.086l-43.654-11.755 3.797-14.099 43.654 11.755-3.797 14.1z m-1.522-37.517l-42.851-19.465 6.038-13.296 42.85 19.465-6.037 13.296z m0 215.124l6.038 13.295-42.851 19.465-6.038-13.295 42.85-19.465z m-1.004 39.55l7.363 12.613-42.165 24.624-7.363-12.613 42.165-24.623z m0-294.225l-42.165-24.624 7.363-12.612 42.165 24.623-7.363 12.613z m-1.741-37.536L794.507 232l9.404-11.17 40.727 34.28-9.404 11.17z m0 369.294l9.404 11.17-40.727 34.28-9.404-11.171 40.727-34.28z m-1.68-413.642l-39.054-45.6 11.09-9.498 39.055 45.6-11.09 9.498z m47.363 485.128l-11.09-9.499 36.035-42.073 11.09 9.499-36.035 42.073z m31.794-282.34l-40.953-6.567 2.31-14.42 40.957 6.568-2.314 14.42z m1.248 18.907v14.603H872.82v-14.603h41.14z m-1.248 33.51l2.314 14.42-40.956 6.567-2.311-14.42 40.953-6.567z m-0.898 35.768l3.796 14.1-40.635 10.94-3.796-14.099 40.635-10.94z m0-123.953l-40.635-10.944 3.796-14.1 40.635 10.945-3.796 14.1z m-1.526-33.619l-39.832-18.092 6.038-13.296 39.832 18.093-6.038 13.295z m0 191.187l6.038 13.296-39.832 18.092-6.038-13.295 39.832-18.093z m-1.004 35.477l7.363 12.613-39.146 22.86-7.363-12.613 39.146-22.86z m0-262.144l-39.15-22.856 7.364-12.61 39.145 22.857-7.36 12.61z m-1.738-33.666l-37.71-31.739 9.403-11.17 37.707 31.738-9.4 11.171z m0 329.48l9.404 11.17-37.707 31.74-9.404-11.172 37.707-31.738z m-1.683-369.297l-36.035-42.077 11.09-9.5 36.036 42.078-11.09 9.499zM343.071 749.995v-600.32s-29.063 205.582-178.245 245.837v107.146c149.182 40.26 178.245 247.337 178.245 247.337z"  /></svg>