<?xml version="1.0" standalone="no"?><!DOCTYPE svg PUBLIC "-//W3C//DTD SVG 1.1//EN" "http://www.w3.org/Graphics/SVG/1.1/DTD/svg11.dtd"><svg class="icon" width="64px" height="64.00px" viewBox="0 0 1024 1024" version="1.1" xmlns="http://www.w3.org/2000/svg"><path fill="#505766" d="M921.6 261.389474h-53.894737V223.663158h13.473684c24.252632 0 43.115789-18.863158 43.11579-43.11579V137.431579c0-24.252632-18.863158-43.115789-43.11579-43.11579H646.736842c-24.252632 0-43.115789 18.863158-43.115789 43.11579v43.115789c0 24.252632 18.863158 43.115789 43.115789 43.11579h13.473684v37.726316h-70.063158l-94.315789-115.873685c-13.473684-18.863158-29.642105-40.421053-64.673684-40.421052H212.884211c-35.031579 0-56.589474 24.252632-56.589474 56.589474v97.010526h-53.894737c-37.726316 0-67.368421 29.642105-67.368421 67.368421V781.473684c0 37.726316 29.642105 67.368421 67.368421 67.368421h56.589474v21.557895c0 32.336842 26.947368 59.284211 59.28421 59.284211h113.178948c32.336842 0 59.284211-26.947368 59.28421-59.284211v-21.557895h245.221053v21.557895c0 32.336842 26.947368 59.284211 59.28421 59.284211H808.421053c32.336842 0 59.284211-26.947368 59.28421-59.284211v-21.557895h53.894737c37.726316 0 67.368421-29.642105 67.368421-67.368421V328.757895c0-37.726316-29.642105-67.368421-67.368421-67.368421z m-280.252632-80.842106V137.431579c0-2.694737 2.694737-5.389474 5.389474-5.389474h234.442105c2.694737 0 5.389474 2.694737 5.389474 5.389474v43.115789c0 2.694737-2.694737 5.389474-5.389474 5.389474H646.736842c-2.694737 0-5.389474-2.694737-5.389474-5.389474z m56.589474 43.11579h132.042105v37.726316h-132.042105V223.663158zM194.021053 164.378947c0-8.084211 2.694737-18.863158 18.863158-18.863158h220.968421c13.473684 0 21.557895 5.389474 35.031579 24.252632l75.452631 91.621053h-350.315789V164.378947zM350.315789 870.4c0 10.778947-10.778947 21.557895-21.557894 21.557895H215.578947c-10.778947 0-21.557895-10.778947-21.557894-21.557895v-21.557895H350.315789v21.557895z m479.663158 0c0 10.778947-10.778947 21.557895-21.557894 21.557895h-113.178948c-10.778947 0-21.557895-10.778947-21.557894-21.557895v-21.557895h156.294736v21.557895z m121.263158-88.926316c0 16.168421-13.473684 29.642105-29.642105 29.642105H102.4c-16.168421 0-29.642105-13.473684-29.642105-29.642105V328.757895c0-16.168421 13.473684-29.642105 29.642105-29.642106h819.2c16.168421 0 29.642105 13.473684 29.642105 29.642106V781.473684z"  /><path fill="#505766" d="M706.021053 441.936842c-75.452632 0-140.126316 61.978947-140.126316 140.126316 0 75.452632 61.978947 140.126316 140.126316 140.126316s140.126316-61.978947 140.126315-140.126316c-2.694737-78.147368-64.673684-140.126316-140.126315-140.126316z m0 239.831579c-56.589474 0-102.4-45.810526-102.4-102.4s45.810526-102.4 102.4-102.4 102.4 45.810526 102.4 102.4-48.505263 102.4-102.4 102.4zM369.178947 444.631579H175.157895c-10.778947 0-18.863158 8.084211-18.863158 18.863158s8.084211 18.863158 18.863158 18.863158h194.021052c10.778947 0 18.863158-8.084211 18.863158-18.863158s-8.084211-18.863158-18.863158-18.863158zM369.178947 563.2H175.157895c-10.778947 0-18.863158 8.084211-18.863158 18.863158s8.084211 18.863158 18.863158 18.863158h194.021052c10.778947 0 18.863158-8.084211 18.863158-18.863158s-8.084211-18.863158-18.863158-18.863158zM369.178947 681.768421H175.157895c-10.778947 0-18.863158 8.084211-18.863158 18.863158s8.084211 18.863158 18.863158 18.863158h194.021052c10.778947 0 18.863158-8.084211 18.863158-18.863158s-8.084211-18.863158-18.863158-18.863158z"  /><path fill="#505766" d="M743.747368 563.2h-78.147368c-10.778947 0-18.863158 8.084211-18.863158 18.863158s8.084211 18.863158 18.863158 18.863158h78.147368c10.778947 0 18.863158-8.084211 18.863158-18.863158s-8.084211-18.863158-18.863158-18.863158z"  /></svg>