<?xml version="1.0" standalone="no"?><!DOCTYPE svg PUBLIC "-//W3C//DTD SVG 1.1//EN" "http://www.w3.org/Graphics/SVG/1.1/DTD/svg11.dtd"><svg class="icon" width="64px" height="64.00px" viewBox="0 0 1024 1024" version="1.1" xmlns="http://www.w3.org/2000/svg"><path fill="#505766" d="M930.909091 393.960727l-155.112727-42.286545 24.482909-89.832727 223.767272 61.044363v96.488727H1024V1024l-93.090909-23.272727v-2.094546L682.658909 930.909091l-341.317818 93.090909L0 930.909091V329.309091h-0.023273v-96.512l248.226909 67.723636-24.482909 89.809455L93.090909 354.676364v505.111272l248.250182 67.700364 341.317818-93.090909L930.909091 902.120727V393.960727zM512 605.090909c-155.159273-162.56-232.727273-286.673455-232.727273-372.363636 0-128.535273 104.192-232.727273 232.727273-232.727273s232.727273 104.192 232.727273 232.727273c0 85.690182-77.568 209.803636-232.727273 372.363636z m139.636364-372.363636a139.636364 139.636364 0 1 0-279.272728 0c0 44.381091 45.730909 125.44 139.636364 234.123636 93.905455-108.683636 139.636364-189.742545 139.636364-234.123636z m-139.636364 46.545454a46.545455 46.545455 0 1 1 0-93.090909 46.545455 46.545455 0 0 1 0 93.090909z m-209.454545 302.545455h93.090909v279.272727h-93.090909V581.818182z m325.794909-46.545455h93.090909v232.727273h-93.090909V535.272727z"  /></svg>