<?xml version="1.0" standalone="no"?><!DOCTYPE svg PUBLIC "-//W3C//DTD SVG 1.1//EN" "http://www.w3.org/Graphics/SVG/1.1/DTD/svg11.dtd"><svg class="icon" width="64px" height="64.00px" viewBox="0 0 1024 1024" version="1.1" xmlns="http://www.w3.org/2000/svg"><path fill="#505766" d="M855.03 194.38c-44.26-44.27-102.28-66.4-160.29-66.4-58.01 0-116.03 22.13-160.29 66.39l-29.14 29.14a20.56 20.56 0 0 1-14.57 6.04c-5.27 0-10.55-2.01-14.57-6.04l-29.14-29.14c-44.26-44.26-102.28-66.39-160.29-66.39-58.01 0-116.03 22.13-160.28 66.39-88.52 88.52-88.52 232.05 0 320.58L461.6 850.1c8.05 8.05 18.59 12.07 29.14 12.07s21.1-4.02 29.14-12.07l335.15-335.15c88.52-88.52 88.52-232.05 0-320.57z m-60.91 259.67L490.74 757.43 187.35 454.05c-54.8-54.8-54.8-143.96 0.01-198.76 26.54-26.54 61.83-41.16 99.38-41.16 37.54 0 72.84 14.62 99.38 41.16l29.16 29.16c20.16 20.15 46.96 31.25 75.47 31.25s55.31-11.1 75.49-31.27l29.14-29.14c26.55-26.55 61.84-41.17 99.38-41.17 37.54 0 72.83 14.62 99.38 41.17 54.78 54.79 54.78 143.96-0.02 198.76zM921.42 723.6h-43.07v-43.07c0-23.69-19.38-43.07-43.07-43.07s-43.07 19.38-43.07 43.07v43.07h-43.07c-23.69 0-43.07 19.38-43.07 43.07s19.38 43.07 43.07 43.07h43.07v43.07c0 23.69 19.38 43.07 43.07 43.07s43.07-19.38 43.07-43.07v-43.07h43.07c23.69 0 43.07-19.38 43.07-43.07s-19.38-43.07-43.07-43.07z"  /></svg>