<?xml version="1.0" standalone="no"?><!DOCTYPE svg PUBLIC "-//W3C//DTD SVG 1.1//EN" "http://www.w3.org/Graphics/SVG/1.1/DTD/svg11.dtd"><svg class="icon" width="64px" height="63.94px" viewBox="0 0 1025 1024" version="1.1" xmlns="http://www.w3.org/2000/svg"><path fill="#505766" d="M919.500008 486.405324l-57.396574 0c-2.746821-38.316254-11.672196-75.53808-26.656343-110.96316-14.34428-33.912946-33.710236-65.016621-57.722138-92.753059l40.581895-40.581895c9.995233-9.996257 9.995233-26.201782 0-36.195991-9.996257-9.996257-26.201782-9.995233-36.195991 0l-40.581895 40.581895c-27.737463-24.011902-58.840113-43.377857-92.753059-57.721114-35.42508-14.983124-72.646905-23.909523-110.96316-26.656343l0-57.396574c0-14.135428-11.459248-25.594676-25.594676-25.594676s-25.594676 11.459248-25.594676 25.594676l0 57.396574c-38.316254 2.746821-75.53808 11.67322-110.96316 26.656343-33.912946 14.34428-65.015597 33.710236-92.753059 57.722138l-40.581895-40.582919c-9.995233-9.995233-26.200758-9.996257-36.195991 0-9.995233 9.995233-9.995233 26.200758 0 36.195991l40.581895 40.582919c-24.011902 27.736439-43.377857 58.840113-57.721114 92.753059-14.983124 35.42508-23.909523 72.646905-26.656343 110.96316l-57.396574 0c-14.135428 0-25.594676 11.459248-25.594676 25.594676 0 14.136452 11.459248 25.594676 25.594676 25.594676l57.396574 0c2.746821 38.316254 11.672196 75.539104 26.656343 110.96316 14.343257 33.912946 33.710236 65.015597 57.721114 92.753059l-40.581895 40.582919c-9.995233 9.995233-9.995233 26.200758 0 36.195991 4.998128 4.997105 11.548318 7.496169 18.098508 7.496169s13.100379-2.499064 18.098508-7.496169l40.581895-40.582919c27.737463 24.011902 58.840113 43.377857 92.753059 57.721114 35.42508 14.984147 72.646905 23.909523 110.96316 26.657367l0 57.39555c0 14.135428 11.459248 25.594676 25.594676 25.594676s25.594676-11.459248 25.594676-25.594676l0-57.39555c38.316254-2.746821 75.53808-11.67322 110.96316-26.657367 33.912946-14.343257 65.015597-33.710236 92.753059-57.721114l40.581895 40.582919c4.998128 4.998128 11.547294 7.496169 18.098508 7.496169 6.549166 0 13.101403-2.499064 18.098508-7.496169 9.995233-9.995233 9.995233-26.200758 0-36.195991l-40.581895-40.582919c24.011902-27.737463 43.377857-58.840113 57.722138-92.753059 14.983124-35.42508 23.909523-72.646905 26.656343-110.96316l57.396574 0c14.135428 0 25.594676-11.458225 25.594676-25.594676C945.094684 497.865596 933.635436 486.405324 919.500008 486.405324zM512.21909 811.619471c-165.210564 0-299.618447-134.408907-299.618447-299.618447 0-165.20954 134.407883-299.618447 299.618447-299.618447s299.618447 134.408907 299.618447 299.618447C811.837538 677.210564 677.429655 811.619471 512.21909 811.619471zM500.960504 255.516773c-64.988978 0-126.038424 26.794555-171.902036 75.446963-45.629165 48.404652-70.758018 112.697455-70.758018 181.036264 0 68.33881 25.128853 132.632636 70.758018 181.036264 45.863612 48.652408 106.913058 75.446963 171.902036 75.446963 8.481052 0 15.356806-6.875754 15.356806-15.356806l0-482.253867C516.31731 262.391503 509.441556 255.516773 500.960504 255.516773zM485.603698 329.833475l-109.699806 0c31.202982-24.372275 68.86606-39.886744 109.699806-43.016461L485.603698 329.833475zM343.926927 360.547086l141.676771 0 0 53.236927-175.46072 0C319.008974 394.31875 330.428295 376.412714 343.926927 360.547086zM289.572025 528.448163l196.031673 0 0 53.236927-186.256555 0C294.167805 564.724009 290.824117 546.889639 289.572025 528.448163zM289.448147 497.734551c1.08419-18.427143 4.250764-36.259466 9.255035-53.236927l186.90154 0 0 53.236927L289.448147 497.734551zM311.160623 612.398701l174.443076 0 0 53.236927-139.806312 0C331.992642 649.826308 320.293827 631.909011 311.160623 612.398701zM378.738758 696.349239l106.86494 0 0 40.83477C445.99952 734.148481 409.37661 719.465327 378.738758 696.349239z" /></svg>