<?xml version="1.0" standalone="no"?><!DOCTYPE svg PUBLIC "-//W3C//DTD SVG 1.1//EN" "http://www.w3.org/Graphics/SVG/1.1/DTD/svg11.dtd"><svg class="icon" width="64px" height="64.00px" viewBox="0 0 1024 1024" version="1.1" xmlns="http://www.w3.org/2000/svg"><path fill="#505766" d="M525.03527 62.920554l0.451559 0.25575 367.640976 212.256718a31.97977 31.97977 0 0 1 15.98439 27.210428v424.99097a31.96878 31.96878 0 0 1-15.57479 27.445198l-0.4096 0.240764-367.640976 212.257718a31.96878 31.96878 0 0 1-31.517221 0.25575l-0.451559-0.25575-367.640976-212.257718a31.97977 31.97977 0 0 1-15.98439-27.210427V303.118985a31.96878 31.96878 0 0 1 15.57479-27.445198l0.4096-0.240765L493.518049 63.176304a31.96878 31.96878 0 0 1 31.517221-0.25575zM509.502439 137.004207L181.822439 326.188457v378.374493l327.68 189.186248L837.182439 704.561951V326.189456l-327.68-189.185249z m-166.999914 242.762927l169.234732 95.188043 169.252714-92.318845a7.992195 7.992195 0 0 1 10.84341 3.188886l22.962576 42.098887a7.992195 7.992195 0 0 1-3.188886 10.842412l-168.138802 91.710439L543.469268 703.313171a7.992195 7.992195 0 0 1-7.992195 7.992195h-47.953171a7.992195 7.992195 0 0 1-7.992195-7.992195V530.197229L311.157136 435.494712a7.992195 7.992195 0 0 1-3.047025-10.884371l23.507044-41.795184a7.992195 7.992195 0 0 1 10.884371-3.048023z" /></svg>