<?xml version="1.0" standalone="no"?><!DOCTYPE svg PUBLIC "-//W3C//DTD SVG 1.1//EN" "http://www.w3.org/Graphics/SVG/1.1/DTD/svg11.dtd"><svg class="icon" width="64px" height="64.00px" viewBox="0 0 1024 1024" version="1.1" xmlns="http://www.w3.org/2000/svg"><path fill="#505766" d="M71.557087 0.076156h41.844048a20.922024 20.922024 0 0 1 20.922023 20.922024v424.717083H50.635063V20.99818A20.922024 20.922024 0 0 1 71.557087 0.076156zM240.607039 141.090596h41.844048v751.519095h-41.844048zM503.806098 291.310727h41.844048v601.298964h-41.844048zM71.557087 441.112417h41.844048v464.050488a20.922024 20.922024 0 0 1-20.922024 20.922024 20.922024 20.922024 0 0 1-20.922024-20.922024V441.112417zM859.062062 150.296287H227.635385a21.340464 21.340464 0 0 1-22.595786-18.829821V18.905978A21.340464 21.340464 0 0 1 227.635385 0.076156h631.426677a20.922024 20.922024 0 0 1 22.595786 18.829822v112.560488a20.922024 20.922024 0 0 1-22.595786 18.829821zM92.479111 59.494704h150.220131v18.829821H92.479111zM223.86942 890.517488h338.099905v20.922024a20.922024 20.922024 0 0 1-20.922024 20.922024H244.791444a20.922024 20.922024 0 0 1-20.922024-20.922024v-20.922024zM654.44467 272.480906l-150.220131 37.659643v-37.659643l150.220131-37.659643v37.659643zM654.026229 234.821263h41.844048v789.178737h-41.844048zM804.24636 141.090596h41.844047v488.320035h-41.844047zM804.24636 796.368381h41.844047v225.539417h-41.844047zM322.202932 815.198203a75.737726 75.737726 0 0 1 7.113488-24.687988q5.439726-10.879452 10.042572-21.340465A58.581667 58.581667 0 0 0 343.543396 753.269012a55.652583 55.652583 0 0 1 6.695048 27.198631l2.510643-3.347524a214.241524 214.241524 0 0 0 16.737619-23.851107 107.957643 107.957643 0 0 0 10.879452-24.687988 59.418548 59.418548 0 0 0 2.510643-17.156059v-6.276607a62.766071 62.766071 0 0 1 13.390095 7.950369 79.922131 79.922131 0 0 1 18.829822 20.503583 116.326452 116.326452 0 0 1 14.226976 33.056797 14.226976 14.226976 0 0 0 3.765964-5.021285 31.383036 31.383036 0 0 0 0-15.063857 79.08525 79.08525 0 0 0 0-9.624131l2.929083 2.092202a125.532143 125.532143 0 0 1 21.340465 29.709274 98.751952 98.751952 0 0 1 8.78725 21.758905 88.709381 88.709381 0 0 1 2.092202 18.411381 58.163226 58.163226 0 0 1-5.858167 25.106428 74.063964 74.063964 0 0 1-14.226976 19.666702 70.71644 70.71644 0 0 1-15.063857 12.553215l-10.461012 6.695047a75.319286 75.319286 0 0 0 4.602845-54.397262 77.829928 77.829928 0 0 0-29.709273-44.77313A64.439833 64.439833 0 0 1 385.387444 820.219488a33.056798 33.056798 0 0 0-6.695048-25.106428v7.113488a96.241309 96.241309 0 0 1-10.042571 20.922024 45.191571 45.191571 0 0 0-8.78725 19.248262 33.056798 33.056798 0 0 0 0 14.226976 71.134881 71.134881 0 0 0 4.184405 13.390095l-7.531929-4.602845A159.425821 159.425821 0 0 1 343.543396 857.879131a51.049738 51.049738 0 0 1-15.063857-17.5745 51.886619 51.886619 0 0 1-4.602845-25.106428zM407.564789 965.418333h-28.872393a10.461012 10.461012 0 0 1-9.624131-5.858166l-17.99294-35.985881h83.688095l-17.99294 35.985881a10.042571 10.042571 0 0 1-9.205691 5.858166zM804.24636 603.885762h169.049952v41.844048h-169.049952zM804.24636 796.368381h169.049952v41.844048h-169.049952zM653.607789 982.155952h192.482618v41.844048h-192.482618zM973.296312 603.885762v230.142262h-41.844047v-230.142262z" /></svg>