<?xml version="1.0" standalone="no"?><!DOCTYPE svg PUBLIC "-//W3C//DTD SVG 1.1//EN" "http://www.w3.org/Graphics/SVG/1.1/DTD/svg11.dtd"><svg class="icon" width="64px" height="64.00px" viewBox="0 0 1024 1024" version="1.1" xmlns="http://www.w3.org/2000/svg"><path fill="#505766" d="M489.916029 588.550467l206.614731 0c17.726733 0 32.07144-14.360056 32.07144-32.07144s-14.344706-32.07144-32.07144-32.07144L521.987468 524.407588 521.987468 343.398024c0-17.711384-14.344706-32.07144-32.07144-32.07144-17.726733 0-32.07144 14.360056-32.07144 32.07144l0 213.065653c0 0.00307 0 0.005117 0 0.008186s0 0.005117 0 0.008186C457.844589 574.190411 472.189296 588.550467 489.916029 588.550467zM786.635941 160.601768C692.772156 87.267553 575.98222 54.914704 457.750445 69.431326c-118.199029 14.516622-223.683479 74.211189-297.002344 168.075996-10.899234 13.96813-8.42488 34.122145 5.54325 45.02138 13.96813 10.899234 34.106796 8.377808 45.00603-5.5279 62.764486-80.365352 153.089677-131.478474 254.282381-143.912667 101.349269-12.370749 201.227024 15.284101 281.5934 78.063937 165.867702 129.567961 195.402365 369.961006 65.833381 535.87578-129.599683 165.899424-369.913934 195.464787-535.87578 65.833381C164.068729 724.539674 110.355387 582.02075 136.977721 440.894545c3.288906-17.413602-8.143471-34.18559-25.557072-37.473473-17.257036-3.163039-34.20094 8.17417-37.458123 25.572422-31.100322 164.818813 31.632441 331.281055 163.706479 434.415994 79.175247 61.85579 174.668135 94.553493 273.606495 94.553493 18.322297 0 36.769438-1.095961 55.247278-3.382027 118.230752-14.531971 223.715201-74.226538 297.033044-168.091346C1014.923274 592.716346 980.409203 311.952848 786.635941 160.601768z" /></svg>