<?xml version="1.0" standalone="no"?><!DOCTYPE svg PUBLIC "-//W3C//DTD SVG 1.1//EN" "http://www.w3.org/Graphics/SVG/1.1/DTD/svg11.dtd"><svg class="icon" width="64px" height="64.00px" viewBox="0 0 1024 1024" version="1.1" xmlns="http://www.w3.org/2000/svg"><path fill="#505766" d="M562.2 932H461.8c-24.3 0-45-17.3-49.2-41.2l-12.8-71.6c-8.7-3.2-17.3-6.7-25.7-10.7l-59.6 41.6c-19.9 13.9-46.8 11.5-64-5.7l-71-71c-17.2-17.2-19.5-44.1-5.7-64l41.6-59.6c-3.9-8.4-7.5-17-10.7-25.7l-71.6-12.8c-23.9-4.3-41.2-25-41.2-49.2V461.8c0-24.3 17.3-45 41.2-49.2l71.6-12.8c3.2-8.7 6.7-17.3 10.7-25.7l-41.6-59.6c-13.9-19.9-11.5-46.8 5.7-64l71-71c17.2-17.2 44.1-19.5 64-5.7l59.6 41.6c8.4-3.9 17-7.5 25.7-10.7l12.8-71.6c4.3-23.9 25-41.2 49.2-41.2h100.4c24.3 0 45 17.3 49.2 41.2l12.8 71.6c8.7 3.2 17.3 6.7 25.7 10.7l59.6-41.6c19.9-13.9 46.8-11.5 64 5.7l71 71c17.2 17.2 19.5 44.1 5.7 64l-41.6 59.6c3.9 8.4 7.5 17 10.7 25.7l71.6 12.8c23.9 4.3 41.2 25 41.2 49.2v100.4c0 24.3-17.3 45-41.2 49.2l-71.6 12.8c-3.2 8.7-6.7 17.3-10.7 25.7l41.6 59.6c13.9 19.9 11.5 46.8-5.7 64l-71 71c-17.2 17.2-44.1 19.5-64 5.7l-59.6-41.6c-8.4 3.9-17 7.5-25.7 10.7l-12.8 71.6c-4.3 23.8-25 41.1-49.2 41.1z m-92-60h83.6l13.4-74.9c2.6-14.6 13-26.5 27.1-31 13.4-4.3 26.6-9.8 39.2-16.3 13.2-6.8 28.9-5.7 41.1 2.8l62.4 43.5 59.1-59.1-43.5-62.4c-8.5-12.2-9.5-27.9-2.8-41.1 6.5-12.6 11.9-25.8 16.3-39.2 4.6-14.1 16.4-24.5 31-27.1l74.9-13.4v-83.6l-74.9-13.4c-14.6-2.6-26.5-13-31-27.1-4.3-13.4-9.8-26.6-16.3-39.2-6.8-13.2-5.7-28.9 2.8-41.1l43.5-62.4-59.1-59.1-62.4 43.5c-12.2 8.5-27.9 9.5-41.1 2.8-12.6-6.5-25.8-11.9-39.2-16.3-14.1-4.6-24.5-16.4-27.1-31L553.8 152h-83.6l-13.4 74.9c-2.6 14.6-13 26.5-27.1 31-13.4 4.3-26.6 9.8-39.2 16.3-13.2 6.8-28.9 5.7-41.1-2.8L287 227.9 227.9 287l43.5 62.4c8.5 12.2 9.5 27.9 2.8 41.1-6.5 12.6-11.9 25.8-16.3 39.2-4.6 14.1-16.4 24.5-31 27.1L152 470.2v83.6l74.9 13.4c14.6 2.6 26.5 13 31 27.1 4.3 13.4 9.8 26.6 16.3 39.2 6.8 13.2 5.7 28.9-2.8 41.1L227.9 737l59.1 59.1 62.4-43.5c12.2-8.5 27.9-9.5 41.1-2.8 12.6 6.5 25.8 11.9 39.2 16.3 14.1 4.6 24.5 16.4 27.1 31l13.4 74.9z"  /><path fill="#505766" d="M512 659c-81.1 0-147-65.9-147-147s65.9-147 147-147 147 65.9 147 147-65.9 147-147 147z m0-234c-48 0-87 39-87 87s39 87 87 87 87-39 87-87-39-87-87-87z"  /></svg>