<?xml version="1.0" standalone="no"?><!DOCTYPE svg PUBLIC "-//W3C//DTD SVG 1.1//EN" "http://www.w3.org/Graphics/SVG/1.1/DTD/svg11.dtd"><svg class="icon" width="64px" height="64.00px" viewBox="0 0 1024 1024" version="1.1" xmlns="http://www.w3.org/2000/svg"><path fill="#505766" d="M956.509091 256c-9.309091-16.290909-30.254545-23.272727-48.872727-13.963636L805.236364 302.545455V200.145455c0-11.636364-9.309091-20.945455-20.945455-20.945455s-20.945455 9.309091-20.945454 20.945455V325.818182l-216.436364 123.345454V202.472727L656.290909 139.636364c9.309091-6.981818 13.963636-18.618182 6.981818-27.927273-6.981818-9.309091-18.618182-13.963636-27.927272-6.981818l-88.436364 51.2V34.909091C546.909091 16.290909 530.618182 0 512 0s-34.909091 16.290909-34.909091 34.909091v118.690909l-88.436364-51.2c-9.309091-6.981818-23.272727-2.327273-27.927272 6.981818-6.981818 9.309091-2.327273 23.272727 6.981818 27.927273l109.381818 62.836364v249.018181L260.654545 325.818182V200.145455c0-11.636364-9.309091-20.945455-20.945454-20.945455s-20.945455 9.309091-20.945455 20.945455V302.545455L116.363636 242.036364c-16.290909-9.309091-37.236364-2.327273-48.872727 13.963636-9.309091 16.290909-4.654545 39.563636 13.963636 48.872727l102.4 58.181818-88.436363 51.2c-9.309091 4.654545-13.963636 18.618182-6.981818 27.927273 4.654545 6.981818 11.636364 11.636364 18.618181 11.636364 4.654545 0 6.981818 0 11.636364-2.327273l109.381818-62.836364L442.181818 512l-216.436363 123.345455L116.363636 572.509091c-9.309091-6.981818-23.272727-2.327273-27.927272 6.981818-6.981818 9.309091-2.327273 23.272727 6.981818 27.927273l88.436363 51.2-102.4 58.181818c-16.290909 9.309091-23.272727 30.254545-13.963636 48.872727 6.981818 11.636364 18.618182 18.618182 30.254546 18.618182 6.981818 0 11.636364-2.327273 18.618181-4.654545L218.763636 721.454545v102.4c0 11.636364 9.309091 20.945455 20.945455 20.945455s20.945455-9.309091 20.945454-20.945455V698.181818l216.436364-123.345454v249.018181L367.709091 884.363636c-9.309091 6.981818-13.963636 18.618182-6.981818 27.927273 4.654545 6.981818 11.636364 11.636364 18.618182 11.636364 4.654545 0 6.981818 0 11.636363-2.327273l88.436364-51.2v118.690909c0 18.618182 16.290909 34.909091 34.909091 34.909091s34.909091-16.290909 34.909091-34.909091v-118.690909l88.436363 51.2c2.327273 2.327273 6.981818 2.327273 11.636364 2.327273 6.981818 0 13.963636-4.654545 18.618182-11.636364 6.981818-9.309091 2.327273-23.272727-6.981818-27.927273l-109.381819-62.836363V572.509091l216.436364 123.345454v125.672728c0 11.636364 9.309091 20.945455 20.945455 20.945454s20.945455-9.309091 20.945454-20.945454V721.454545l102.4 58.181819c4.654545 2.327273 11.636364 4.654545 18.618182 4.654545 11.636364 0 23.272727-6.981818 30.254545-18.618182 9.309091-16.290909 4.654545-39.563636-13.963636-48.872727l-102.4-58.181818 88.436364-51.2c9.309091-6.981818 13.963636-18.618182 6.981818-27.927273-6.981818-9.309091-18.618182-13.963636-27.927273-6.981818l-109.381818 62.836364L581.818182 512l216.436363-123.345455 109.381819 62.836364c2.327273 2.327273 6.981818 2.327273 11.636363 2.327273 6.981818 0 13.963636-4.654545 18.618182-11.636364 6.981818-9.309091 2.327273-23.272727-6.981818-27.927273l-88.436364-51.2 102.4-58.181818c13.963636-9.309091 20.945455-32.581818 11.636364-48.872727m0 0z" /></svg>