<?xml version="1.0" standalone="no"?><!DOCTYPE svg PUBLIC "-//W3C//DTD SVG 1.1//EN" "http://www.w3.org/Graphics/SVG/1.1/DTD/svg11.dtd"><svg class="icon" width="64px" height="64.00px" viewBox="0 0 1024 1024" version="1.1" xmlns="http://www.w3.org/2000/svg"><path fill="#505766" d="M900.28 142.08H125.45c-31.74 0-57.58 25.83-57.58 57.59v495.18c0 31.76 25.83 57.59 57.58 57.59h774.84c31.76 0 57.59-25.83 57.59-57.59V199.67c-0.01-31.76-25.84-57.59-57.6-57.59z m-7.53 545.23H132.99V207.2h759.76v480.11zM830.18 815.29H195.56c-17.49 0-31.67 14.18-31.67 31.67v3.54c0 17.49 14.18 31.67 31.67 31.67h634.62c17.49 0 31.67-14.18 31.67-31.67v-3.54c0-17.49-14.18-31.67-31.67-31.67z"  /><path fill="#505766" d="M166.89 581.95a32.42 32.42 0 0 0 13.84 3.11c12.22 0 23.93-6.92 29.49-18.71l95.92-203.85 152.81 189.61c10.14 12.57 26.36 18.72 42.28 16.24 15.94-2.55 29.39-13.51 35.12-28.63l36.06-95.47 88.29 98.11c8.17 9.09 19.86 14.54 32.08 14.95 12.27 0.57 24.26-4.26 33.02-12.8l141.91-138.46c12.88-12.56 13.13-33.18 0.57-46.04-12.57-12.89-33.2-13.14-46.04-0.57L695.21 483.37l-96.35-107.06c-10.64-11.78-26.28-17.11-41.9-14.14-15.6 2.93-28.27 13.55-33.9 28.41l-35.32 93.5L336.83 296.8c-9.83-12.19-25.05-18.39-40.52-16.5-15.55 1.85-28.82 11.43-35.51 25.61L151.29 538.62c-7.66 16.27-0.67 35.67 15.6 43.33z"  /></svg>