<?xml version="1.0" standalone="no"?><!DOCTYPE svg PUBLIC "-//W3C//DTD SVG 1.1//EN" "http://www.w3.org/Graphics/SVG/1.1/DTD/svg11.dtd"><svg t="1605682374771" class="icon" viewBox="0 0 1024 1024" version="1.1" xmlns="http://www.w3.org/2000/svg" p-id="6689" xmlns:xlink="http://www.w3.org/1999/xlink" width="64" height="64"><defs><style type="text/css"></style></defs><path d="M927.744 956.416H96.256c-20.48 0-34.816-16.384-34.816-36.864s16.384-36.864 34.816-36.864h829.44c20.48 0 36.864 16.384 36.864 36.864s-16.384 36.864-34.816 36.864zM245.76 253.952c6.144 0 10.24 4.096 10.24 10.24v479.232c0 6.144-4.096 10.24-10.24 10.24H184.32c-6.144 0-10.24-4.096-10.24-10.24V264.192c0-6.144 4.096-10.24 10.24-10.24h61.44m0-71.68H184.32c-45.056 0-81.92 36.864-81.92 81.92v479.232c0 45.056 36.864 81.92 81.92 81.92h61.44c45.056 0 81.92-36.864 81.92-81.92V264.192c0-45.056-36.864-81.92-81.92-81.92zM542.72 415.744c6.144 0 10.24 4.096 10.24 10.24v319.488c0 6.144-4.096 10.24-10.24 10.24h-61.44c-6.144 0-10.24-4.096-10.24-10.24V425.984c0-6.144 4.096-10.24 10.24-10.24h61.44m0-71.68h-61.44c-45.056 0-81.92 36.864-81.92 81.92v319.488c0 45.056 36.864 81.92 81.92 81.92h61.44c45.056 0 81.92-36.864 81.92-81.92V425.984c0-45.056-36.864-81.92-81.92-81.92zM839.68 139.264c6.144 0 10.24 4.096 10.24 10.24v595.968c0 6.144-4.096 10.24-10.24 10.24h-61.44c-6.144 0-10.24-4.096-10.24-10.24V149.504c0-6.144 4.096-10.24 10.24-10.24h61.44m0-71.68h-61.44c-45.056 0-81.92 36.864-81.92 81.92v595.968c0 45.056 36.864 81.92 81.92 81.92h61.44c45.056 0 81.92-36.864 81.92-81.92V149.504c0-45.056-36.864-81.92-81.92-81.92z" p-id="6690"></path></svg>