<?xml version="1.0" standalone="no"?><!DOCTYPE svg PUBLIC "-//W3C//DTD SVG 1.1//EN" "http://www.w3.org/Graphics/SVG/1.1/DTD/svg11.dtd"><svg class="icon" width="64px" height="64.00px" viewBox="0 0 1024 1024" version="1.1" xmlns="http://www.w3.org/2000/svg"><path fill="#505766" d="M713.173333 594.372267c-54.5792 0-98.978133 44.407467-98.978133 98.9952s44.398933 98.986667 98.978133 98.986666 98.9952-44.398933 98.9952-98.986666-44.407467-98.9952-98.9952-98.9952z m0 155.3152a56.379733 56.379733 0 0 1-56.311466-56.32c0-31.061333 25.258667-56.328533 56.311466-56.328534a56.388267 56.388267 0 0 1 56.328534 56.328534c0 31.0528-25.2672 56.32-56.328534 56.32zM936.439467 753.5104a21.2992 21.2992 0 0 0-9.864534-13.0048l-39.714133-23.210667a174.5408 174.5408 0 0 0 0.4608-44.398933l38.8864-23.1424a21.333333 21.333333 0 0 0 7.424-29.243733l-47.650133-80.093867a21.333333 21.333333 0 0 0-29.482667-7.278933l-34.986667 21.469866c-11.972267-8.951467-24.576-15.9488-34.926933-20.9664V497.066667a21.333333 21.333333 0 0 0-21.333333-21.333334h-102.4a21.333333 21.333333 0 0 0-21.333334 21.333334v33.245866c-15.223467 6.024533-26.9056 13.994667-37.794133 23.057067l-31.530667-19.080533a21.3504 21.3504 0 0 0-29.533866 7.620266l-46.250667 80.452267a21.333333 21.333333 0 0 0 7.799467 29.090133l34.670933 20.087467a184.200533 184.200533 0 0 0-1.2544 21.8368c0 9.361067 0.776533 18.7648 2.312533 28.117333l-34.696533 20.676267a21.316267 21.316267 0 0 0-7.415467 29.2352l47.6672 80.085333a21.316267 21.316267 0 0 0 29.7728 7.099734l33.4848-21.2736c9.0624 7.338667 18.901333 14.114133 32.768 19.396266v49.962667a21.333333 21.333333 0 0 0 21.333334 21.333333h102.4a21.333333 21.333333 0 0 0 21.333333-21.333333v-53.384533a203.434667 203.434667 0 0 0 32.256-19.037867l38.9376 23.406933a21.316267 21.316267 0 0 0 29.405867-7.517866l47.0272-80.452267c2.8672-4.8896 3.669333-10.717867 2.2272-16.1792z m-75.170134 56.448l-33.1776-19.9424a21.3248 21.3248 0 0 0-25.1904 2.363733c-11.7504 10.487467-28.305067 20.343467-45.422933 27.0592a21.333333 21.333333 0 0 0-13.550933 19.857067v46.037333h-59.733334v-44.373333a21.333333 21.333333 0 0 0-16.3584-20.744533c-18.807467-4.514133-26.837333-11.3664-40.123733-22.7072l-3.387733-2.884267a21.3504 21.3504 0 0 0-25.233067-1.732267l-28.151467 17.8944-25.5232-42.88 29.474134-17.570133a21.333333 21.333333 0 0 0 9.736533-23.688533 132.181333 132.181333 0 0 1-4.317867-33.271467c0-10.077867 0.964267-19.618133 2.875734-28.356267a21.333333 21.333333 0 0 0-10.146134-23.005866l-29.021866-16.8192 24.772266-43.101867 26.257067 15.880533a21.2992 21.2992 0 0 0 25.437867-2.5088c15.761067-14.404267 26.845867-23.560533 47.803733-29.064533a21.316267 21.316267 0 0 0 15.914667-20.6336V518.4h59.733333v29.013333a21.333333 21.333333 0 0 0 13.166933 19.712c19.054933 7.901867 36.565333 18.56 48.017067 29.243734a21.333333 21.333333 0 0 0 25.7024 2.5856l29.568-18.133334 25.685333 43.1872-32.989866 19.6352a21.333333 21.333333 0 0 0-9.984 22.664534 133.290667 133.290667 0 0 1-0.682667 57.053866 21.333333 21.333333 0 0 0 10.018133 23.236267l34.210134 19.9936-25.378134 43.3664zM569.966933 881.339733c-30.737067 2.653867-62.651733 3.9936-94.839466 3.9936-208.366933 0-341.333333-54.331733-341.333334-91.733333 0-4.778667-1.6128-9.130667-4.266666-12.680533V667.9552c65.698133 47.650133 206.2336 72.311467 345.6 72.311467a21.333333 21.333333 0 1 0 0-42.666667c-208.366933 0-341.333333-54.331733-341.333334-91.733333a21.077333 21.077333 0 0 0-4.266666-12.680534V480.221867c65.698133 47.658667 206.2336 72.311467 345.6 72.311466 5.7856 0 11.537067-0.008533 17.2544-0.1024a21.290667 21.290667 0 0 0-0.3072-42.564266h-0.324267c-5.512533 0-11.0592 0.059733-16.622933 0.059733-208.366933 0-341.333333-54.391467-341.333334-91.793067a21.077333 21.077333 0 0 0-4.266666-12.680533V292.488533c65.698133 47.650133 206.2336 72.311467 345.6 72.311467 133.597867 0 268.270933-22.656 337.066666-66.517333V492.8a21.333333 21.333333 0 1 0 42.666667 0V252.228267c2.7392-6.971733 4.266667-14.2336 4.266667-21.828267 0-88.234667-193.1776-134.4-384-134.4-185.8048 0-373.777067 43.784533-383.530667 127.547733a21.137067 21.137067 0 0 0-4.736 13.252267v563.2c0 7.355733 3.729067 13.841067 9.386667 17.672533 31.7184 72.533333 206.250667 110.327467 378.88 110.327467 33.408 0 66.551467-1.390933 98.5088-4.138667 11.733333-1.015467 20.437333-11.349333 19.421866-23.0912s-11.349333-20.360533-23.0912-19.4304zM475.127467 138.666667c190.984533 0 318.5408 45.636267 338.5088 82.056533a21.333333 21.333333 0 0 0-1.442134 7.543467v14.190933c-24.064 35.9936-150.212267 79.675733-337.066666 79.675733-208.366933 0-341.333333-54.331733-341.333334-91.733333s132.9664-91.733333 341.333334-91.733333z" /></svg>