<?xml version="1.0" standalone="no"?><!DOCTYPE svg PUBLIC "-//W3C//DTD SVG 1.1//EN" "http://www.w3.org/Graphics/SVG/1.1/DTD/svg11.dtd"><svg class="icon" width="64px" height="64.00px" viewBox="0 0 1024 1024" version="1.1" xmlns="http://www.w3.org/2000/svg"><path fill="#505766" d="M394.24 163.84c191.488 0 348.16 156.672 348.16 348.16s-156.672 348.16-348.16 348.16-348.16-156.672-348.16-348.16 156.672-348.16 348.16-348.16m0-30.72c-208.896 0-378.88 169.984-378.88 378.88s169.984 378.88 378.88 378.88 378.88-169.984 378.88-378.88-169.984-378.88-378.88-378.88zM394.24 466.944c24.576 0 45.056 20.48 45.056 45.056s-20.48 45.056-45.056 45.056-45.056-20.48-45.056-45.056 20.48-45.056 45.056-45.056m0-30.72c-41.984 0-75.776 33.792-75.776 75.776s33.792 75.776 75.776 75.776 75.776-33.792 75.776-75.776-33.792-75.776-75.776-75.776zM348.16 263.168c-35.84 0-82.944 14.336-109.568 41.984 0 38.912 149.504 161.792 149.504 161.792s23.552-186.368-10.24-198.656c-7.168-3.072-17.408-5.12-29.696-5.12zM399.36 557.056s-23.552 186.368 10.24 198.656c8.192 3.072 18.432 5.12 30.72 5.12 35.84 0 82.944-14.336 109.568-41.984 0-38.912-150.528-161.792-150.528-161.792zM186.368 400.384c-4.096 0-8.192 1.024-10.24 3.072-27.648 23.552-52.224 91.136-37.888 139.264 4.096 2.048 10.24 3.072 18.432 3.072 57.344 0 195.584-52.224 195.584-52.224s-122.88-93.184-165.888-93.184zM631.808 477.184c-57.344 0-195.584 52.224-195.584 52.224s122.88 93.184 166.912 93.184c4.096 0 8.192-1.024 10.24-3.072 27.648-23.552 52.224-91.136 37.888-139.264-5.12-1.024-11.264-3.072-19.456-3.072zM357.376 538.624S184.32 611.328 190.464 647.168s53.248 90.112 102.4 102.4c33.792-19.456 64.512-210.944 64.512-210.944zM495.616 274.432c-33.792 19.456-64.512 210.944-64.512 210.944S604.16 412.672 598.016 376.832c-6.144-35.84-53.248-90.112-102.4-102.4zM937.984 209.92c-15.36 0-35.84-10.24-61.44-23.552-23.552-12.288-53.248-27.648-70.656-27.648h-1.024c-27.648 1.024-63.488 21.504-74.752 28.672-7.168 5.12-16.384 3.072-21.504-4.096s-3.072-16.384 4.096-21.504c2.048-1.024 48.128-33.792 91.136-34.816 25.6-1.024 56.32 15.36 87.04 30.72 17.408 9.216 38.912 20.48 47.104 20.48 18.432 0 44.032-13.312 52.224-18.432 7.168-4.096 16.384-2.048 21.504 5.12 4.096 7.168 2.048 16.384-5.12 21.504-4.096 3.072-38.912 23.552-68.608 23.552zM937.984 302.08c-15.36 0-35.84-10.24-61.44-23.552-23.552-12.288-53.248-27.648-70.656-27.648h-1.024c-27.648 1.024-63.488 21.504-74.752 28.672-7.168 5.12-16.384 3.072-21.504-4.096s-3.072-16.384 4.096-21.504c2.048-1.024 48.128-33.792 91.136-34.816 25.6-1.024 56.32 15.36 87.04 30.72 17.408 9.216 38.912 20.48 47.104 20.48 18.432 0 44.032-13.312 52.224-18.432 7.168-4.096 16.384-2.048 21.504 5.12 4.096 7.168 2.048 16.384-5.12 21.504-4.096 3.072-38.912 23.552-68.608 23.552zM937.984 394.24c-15.36 0-35.84-10.24-61.44-23.552-23.552-12.288-53.248-27.648-70.656-27.648h-1.024c-27.648 1.024-63.488 21.504-74.752 28.672-7.168 5.12-16.384 3.072-21.504-4.096s-3.072-16.384 4.096-21.504c2.048-1.024 48.128-33.792 91.136-34.816 25.6-1.024 56.32 15.36 87.04 30.72 17.408 9.216 38.912 20.48 47.104 20.48 18.432 0 44.032-13.312 52.224-18.432 7.168-4.096 16.384-2.048 21.504 5.12 4.096 7.168 2.048 16.384-5.12 21.504-4.096 3.072-38.912 23.552-68.608 23.552z" /></svg>