<?xml version="1.0" standalone="no"?><!DOCTYPE svg PUBLIC "-//W3C//DTD SVG 1.1//EN" "http://www.w3.org/Graphics/SVG/1.1/DTD/svg11.dtd"><svg class="icon" width="64px" height="64.00px" viewBox="0 0 1024 1024" version="1.1" xmlns="http://www.w3.org/2000/svg"><path fill="#505766" d="M512 791.62026667c-148.54826667 0-270.88213333-122.33386667-270.88213333-270.88213334S363.45173333 249.856 512 249.856s270.88213333 122.33386667 270.88213333 270.88213333-122.33386667 270.88213333-270.88213333 270.88213334z m0-480.59733334c-116.50844445 0-212.62791111 96.11946667-212.62791111 212.62791112s96.11946667 212.62791111 212.62791111 212.6279111 212.62791111-96.11946667 212.62791111-212.6279111-96.11946667-212.62791111-212.62791111-212.62791112z"  /><path fill="#505766" d="M512 293.54666667c-17.47626667 0-29.12711111-11.65084445-29.12711111-29.12711112V162.47466667c0-17.47626667 11.65084445-29.12711111 29.12711111-29.12711112s29.12711111 11.65084445 29.12711111 29.12711112v101.94488888c0 17.47626667-11.65084445 29.12711111-29.12711111 29.12711112zM331.41191111 369.27715555c-8.73813333 0-14.56355555-2.91271111-20.38897778-8.73813333l-72.81777778-72.81777777c-11.65084445-11.65084445-11.65084445-29.12711111 0-40.77795556s29.12711111-11.65084445 40.77795556 0l72.81777778 72.81777778c11.65084445 11.65084445 11.65084445 29.12711111 0 40.77795555-5.82542222 5.82542222-14.56355555 8.73813333-20.38897778 8.73813333zM255.68142222 549.86524445H153.73653333c-17.47626667 0-29.12711111-11.65084445-29.12711111-29.12711112s11.65084445-29.12711111 29.12711111-29.12711111h101.94488889c17.47626667 0 29.12711111 11.65084445 29.12711111 29.12711111s-14.56355555 29.12711111-29.12711111 29.12711112zM258.59413333 803.27111111c-8.73813333 0-14.56355555-2.91271111-20.38897778-8.73813333-11.65084445-11.65084445-11.65084445-29.12711111 0-40.77795556l72.81777778-72.81777777c11.65084445-11.65084445 29.12711111-11.65084445 40.77795556 0s11.65084445 29.12711111 0 40.77795555L278.98311111 794.53297778c-5.82542222 5.82542222-11.65084445 8.73813333-20.38897778 8.73813333zM512 908.12871111c-17.47626667 0-29.12711111-11.65084445-29.12711111-29.12711111v-101.94488889c0-17.47626667 11.65084445-29.12711111 29.12711111-29.12711111s29.12711111 11.65084445 29.12711111 29.12711111v101.94488889c0 17.47626667-11.65084445 29.12711111-29.12711111 29.12711111zM765.40586667 803.27111111c-8.73813333 0-14.56355555-2.91271111-20.38897778-8.73813333l-72.81777778-72.81777778c-11.65084445-11.65084445-11.65084445-29.12711111 0-40.77795555s29.12711111-11.65084445 40.77795556 0l72.81777778 72.81777777c11.65084445 11.65084445 11.65084445 29.12711111 0 40.77795556-5.82542222 5.82542222-11.65084445 8.73813333-20.38897778 8.73813333zM870.26346667 549.86524445h-101.94488889c-17.47626667 0-29.12711111-11.65084445-29.12711111-29.12711112s11.65084445-29.12711111 29.12711111-29.12711111h101.94488889c17.47626667 0 29.12711111 11.65084445 29.12711111 29.12711111s-11.65084445 29.12711111-29.12711111 29.12711112zM692.58808889 369.27715555c-8.73813333 0-14.56355555-2.91271111-20.38897778-8.73813333-11.65084445-11.65084445-11.65084445-29.12711111 0-40.77795555l72.81777778-72.81777778c11.65084445-11.65084445 29.12711111-11.65084445 40.77795556 0s11.65084445 29.12711111 0 40.77795556l-72.81777778 72.81777777c-5.82542222 5.82542222-11.65084445 8.73813333-20.38897778 8.73813333zM497.43644445 357.62631111c-84.46862222 5.82542222-154.37368889 78.6432-154.3736889 166.02453334s66.99235555 157.2864 154.3736889 166.02453333V357.62631111z"  /></svg>