<?xml version="1.0" standalone="no"?><!DOCTYPE svg PUBLIC "-//W3C//DTD SVG 1.1//EN" "http://www.w3.org/Graphics/SVG/1.1/DTD/svg11.dtd"><svg class="icon" width="64px" height="64.00px" viewBox="0 0 1024 1024" version="1.1" xmlns="http://www.w3.org/2000/svg"><path fill="#505766" d="M955.25 789.29c-98.9-178.84-139.78-247.66-158.18-275.25 18.2-40.35 27.6-84.1 27.59-128.37 0-173-140.75-313.69-313.69-313.69S197.28 212.67 197.28 385.67c0 46.44 10.22 90.5 28.39 130.19-18.96 28.78-60.12 98.39-156.93 273.43-5.28 9.59-4.6 21.35 1.7 30.21 6.3 8.85 17.2 13.34 28.05 11.47l143.02-25.16 53.82 128.77a28.398 28.398 0 0 0 26.17 17.43c10.1 0 19.48-5.39 24.58-14.19l136.66-236.7c0.56-0.97 0.91-2.05 1.36-3.07 8.86 0.74 17.77 1.25 26.8 1.25 9.71 0 19.31-0.51 28.79-1.36 0.46 1.08 0.85 2.16 1.42 3.18l136.66 236.7a28.451 28.451 0 0 0 24.58 14.19c0.63 0 1.2 0 1.82-0.05a28.308 28.308 0 0 0 24.35-17.38l53.83-128.77 143.02 25.16c10.79 1.87 21.68-2.56 28.04-11.47a28.187 28.187 0 0 0 1.84-30.21z m-629.64 70.58l-40.48-96.8c-5.11-12.26-18.03-19.33-31.12-17.03l-106.74 18.73c42.69-76.54 85.45-151.65 110.71-193.89 40.77 55.53 99.3 97.15 167.21 116.45l-99.58 172.54z m-38.83-348.95c-0.82-3.34-2.23-6.51-4.15-9.37-0.62-0.91-1.36-1.65-2.1-2.49a255.476 255.476 0 0 1-26.46-113.44c0-141.66 115.26-256.91 256.91-256.91s256.91 115.25 256.91 256.91c0 141.66-115.26 256.91-256.91 256.91-96.23 0.05-180.2-53.09-224.2-131.61z m483.16 235.11c-13.17-2.27-26.01 4.77-31.12 17.03l-40.48 96.8-99.87-172.99c67.79-19.7 126.09-61.72 166.58-117.53 25.15 41.9 68.41 117.98 111.62 195.42l-106.73-18.73z m0 0"  /><path fill="#505766" d="M368.21 477.68l53.77-4.55c3.98 26.17 13.23 45.85 27.74 59.03 14.51 13.18 32 19.77 52.49 19.77 24.65 0 45.52-9.29 62.59-27.88 17.07-18.58 25.6-43.24 25.6-73.97 0-29.2-8.21-52.25-24.61-69.13-16.41-16.88-37.89-25.32-64.44-25.32-16.5 0-31.39 3.75-44.67 11.24-13.28 7.49-23.71 17.21-31.29 29.16l-48.08-6.26 40.39-214.22h207.4v48.93H458.68l-22.47 112.09c25.03-17.45 51.3-26.17 78.8-26.17 36.41 0 67.14 12.62 92.17 37.84 25.04 25.23 37.55 57.66 37.55 97.29 0 37.74-11 70.37-33 97.86-26.74 33.76-63.25 50.64-109.53 50.64-37.93 0-68.89-10.62-92.88-31.86-23.99-21.24-37.69-49.4-41.11-84.49z m0 0"  /></svg>