<?xml version="1.0" standalone="no"?><!DOCTYPE svg PUBLIC "-//W3C//DTD SVG 1.1//EN" "http://www.w3.org/Graphics/SVG/1.1/DTD/svg11.dtd"><svg class="icon" width="64px" height="64.00px" viewBox="0 0 1024 1024" version="1.1" xmlns="http://www.w3.org/2000/svg"><path fill="#505766" d="M523.230968 749.832258c60.11871-36.996129 239.814194-214.709677 239.814193-330.322581 0-131.468387-107.024516-238.492903-238.492903-238.492903-131.468387 0-238.492903 107.024516-238.492903 238.492903 0 116.273548 179.034839 295.308387 237.171613 330.322581m0.660645 51.530323c-39.63871 0-285.39871-224.619355-285.39871-381.852904 0-157.894194 128.165161-286.059355 286.059355-286.059354s286.059355 128.165161 286.059355 286.059354-249.063226 378.549677-286.059355 381.852904h-0.660645zM532.48 499.447742c48.227097 0 87.205161-38.978065 87.205161-87.205161 0-48.227097-38.978065-87.205161-87.205161-87.205162-48.227097 0-87.205161 38.978065-87.205161 87.205162 0 48.227097 38.978065 87.205161 87.205161 87.205161m0 47.566452c-74.652903 0-135.432258-60.779355-135.432258-135.432259s60.779355-135.432258 135.432258-135.432258 135.432258 60.779355 135.432258 135.432258-60.779355 135.432258-135.432258 135.432259zM254.348387 888.567742h524.552258c13.212903 0 23.783226-10.570323 23.783226-23.783226s-10.570323-23.783226-23.783226-23.783226H254.348387c-13.212903 0-23.783226 10.570323-23.783226 23.783226s10.570323 23.783226 23.783226 23.783226" /></svg>