<?xml version="1.0" standalone="no"?><!DOCTYPE svg PUBLIC "-//W3C//DTD SVG 1.1//EN" "http://www.w3.org/Graphics/SVG/1.1/DTD/svg11.dtd"><svg class="icon" width="64px" height="64.00px" viewBox="0 0 1024 1024" version="1.1" xmlns="http://www.w3.org/2000/svg"><path fill="#505766" d="M771.35 373.67h-43.24v-79.06C728.06 185.5 631.33 97.06 512 97c-119.34 0.06-216.07 88.5-216.13 197.61v79.06h-43.3c-47.68 0.15-86.27 35.45-86.41 79.05v395.2c0.12 43.62 38.75 78.95 86.45 79.08h518.74c47.69-0.11 86.35-35.43 86.48-79.04V452.72c-0.13-43.62-38.79-78.94-86.48-79.05zM512 729.39c-47.7-0.12-86.34-35.45-86.44-79.06 0.13-43.61 38.75-78.93 86.44-79.04 47.69 0.12 86.32 35.43 86.44 79.04-0.11 43.61-38.74 78.94-86.44 79.06z m134-355.72H378v-79.06c0.06-67.64 60.02-122.47 134-122.53 73.98 0.06 133.95 54.88 134 122.53v79.06z m0 0" /></svg>