<?xml version="1.0" standalone="no"?><!DOCTYPE svg PUBLIC "-//W3C//DTD SVG 1.1//EN" "http://www.w3.org/Graphics/SVG/1.1/DTD/svg11.dtd"><svg class="icon" width="64px" height="64.00px" viewBox="0 0 1024 1024" version="1.1" xmlns="http://www.w3.org/2000/svg"><path fill="#505766" d="M953.6 179.2c0-6.4-6.4-19.2-12.8-19.2s-19.2-6.4-25.6-6.4c-44.8 6.4-83.2 6.4-128 0-44.8-12.8-96-32-140.8-57.6C595.2 64 556.8 32 531.2 6.4c-6.4-6.4-32-6.4-38.4 0-25.6 25.6-64 57.6-115.2 89.6-44.8 25.6-96 44.8-140.8 57.6-44.8 12.8-89.6 12.8-128 0-6.4 0-19.2 0-25.6 6.4s-12.8 12.8-12.8 19.2c-6.4 64-19.2 179.2 12.8 313.6 51.2 249.6 192 422.4 416 524.8h25.6c230.4-102.4 371.2-281.6 416-524.8 32-134.4 19.2-249.6 12.8-313.6z m-70.4 300.8c-44.8 224-166.4 384-371.2 473.6-198.4-96-326.4-256-371.2-473.6-19.2-102.4-19.2-198.4-12.8-256 38.4 6.4 83.2 0 121.6-6.4 51.2-12.8 108.8-32 160-64 44.8-32 76.8-57.6 102.4-76.8 25.6 19.2 57.6 51.2 102.4 76.8 51.2 32 108.8 51.2 160 64 38.4 6.4 83.2 12.8 121.6 6.4 6.4 57.6 6.4 153.6-12.8 256z"  /><path fill="#505766" d="M652.8 384l-192 192-89.6-83.2c-12.8-12.8-32-12.8-44.8 0s-12.8 32 0 44.8L435.2 640c6.4 6.4 12.8 6.4 25.6 6.4s19.2 0 25.6-6.4L704 422.4c12.8-12.8 12.8-32 0-44.8s-44.8-6.4-51.2 6.4z"  /></svg>