<?xml version="1.0" standalone="no"?><!DOCTYPE svg PUBLIC "-//W3C//DTD SVG 1.1//EN" "http://www.w3.org/Graphics/SVG/1.1/DTD/svg11.dtd"><svg class="icon" width="64px" height="64.00px" viewBox="0 0 1024 1024" version="1.1" xmlns="http://www.w3.org/2000/svg"><path fill="#505766" d="M512 35.031579C247.915789 35.031579 35.031579 247.915789 35.031579 512S247.915789 988.968421 512 988.968421 988.968421 776.084211 988.968421 512 776.084211 35.031579 512 35.031579z m0 916.210526C269.473684 951.242105 72.757895 754.526316 72.757895 512S269.473684 72.757895 512 72.757895 951.242105 269.473684 951.242105 512 754.526316 951.242105 512 951.242105z"  /><path fill="#505766" d="M902.736842 530.863158v-5.389474-13.473684c0-24.252632-2.694737-45.810526-5.389474-70.063158-10.778947-56.589474-32.336842-107.789474-61.978947-153.6v-2.694737c0-2.694737-2.694737-2.694737-2.694737-5.389473-2.694737-5.389474-10.778947-13.473684-18.863158-24.252632-5.389474-8.084211-13.473684-13.473684-21.557894-21.557895-10.778947-5.389474-16.168421-13.473684-24.252632-18.863158-53.894737-45.810526-121.263158-78.147368-194.021053-91.621052-5.389474 0-13.473684-2.694737-21.557894-2.694737h-8.084211c-10.778947 0-18.863158-2.694737-32.336842-2.694737-10.778947 0-21.557895 0-32.336842 2.694737-5.389474 0-10.778947 0-18.863158 2.694737-10.778947 0-16.168421 2.694737-18.863158 2.694737-61.978947 10.778947-115.873684 35.031579-164.378947 72.757894-8.084211 5.389474-13.473684 10.778947-21.557895 16.168421-5.389474 5.389474-13.473684 10.778947-18.863158 16.168421 0 2.694737-2.694737 5.389474-5.389474 5.389474-5.389474 8.084211-13.473684 13.473684-16.168421 21.557895-5.389474 2.694737-8.084211 8.084211-10.778947 10.778947-2.694737 5.389474-5.389474 8.084211-8.084211 10.778948-35.031579 45.810526-56.589474 99.705263-67.368421 158.989473v2.694737c0 2.694737-5.389474 35.031579-5.389473 70.063158 0 37.726316 5.389474 70.063158 5.389473 70.063158v2.694737c13.473684 70.063158 45.810526 134.736842 91.621053 185.936842 5.389474 5.389474 8.084211 10.778947 13.473684 16.168421l5.389474 5.389474c8.084211 8.084211 16.168421 13.473684 21.557895 18.863157 2.694737 2.694737 5.389474 5.389474 8.08421 5.389474 8.084211 8.084211 16.168421 10.778947 18.863158 13.473684 45.810526 32.336842 99.705263 56.589474 156.294737 64.673685 2.694737 0 8.084211 2.694737 18.863158 2.694736 5.389474 0 10.778947 2.694737 18.863158 2.694737 10.778947 0 21.557895 2.694737 32.336842 2.694737 13.473684 0 26.947368 0 37.726316-2.694737h8.08421c13.473684-2.694737 21.557895-2.694737 24.252632-2.694737 56.589474-10.778947 107.789474-32.336842 153.6-61.978947 0 0 26.947368-18.863158 53.894737-45.810526 24.252632-24.252632 43.115789-53.894737 45.810526-53.894737 37.726316-59.284211 61.978947-129.347368 64.673684-204.8zM544.336842 865.010526c-10.778947 0-21.557895 2.694737-32.336842 2.694737-10.778947 0-18.863158 0-29.642105-2.694737-5.389474 0-10.778947 0-16.168421-2.694737 5.389474-18.863158 24.252632-35.031579 45.810526-35.031578 18.863158 0 37.726316 16.168421 45.810526 35.031578h-5.389473c-2.694737 2.694737-5.389474 2.694737-8.084211 2.694737zM512 789.557895c-37.726316 0-72.757895 26.947368-80.842105 64.673684-37.726316-8.084211-72.757895-24.252632-102.4-43.11579 8.084211-13.473684 10.778947-26.947368 13.473684-43.115789 0-24.252632-8.084211-45.810526-24.252632-61.978947-26.947368-26.947368-70.063158-29.642105-105.094736-10.778948-18.863158-32.336842-35.031579-67.368421-43.11579-105.094737 37.726316-10.778947 64.673684-43.115789 64.673684-80.842105s-26.947368-72.757895-64.673684-80.842105c8.084211-37.726316 24.252632-72.757895 43.11579-105.094737 13.473684 8.084211 29.642105 13.473684 45.810526 13.473684 21.557895 0 43.115789-8.084211 59.28421-24.252631 16.168421-16.168421 24.252632-37.726316 24.252632-61.978948 0-16.168421-5.389474-29.642105-13.473684-43.115789 32.336842-18.863158 67.368421-35.031579 102.4-43.11579 10.778947 37.726316 43.115789 64.673684 80.842105 64.673685s72.757895-29.642105 80.842105-64.673685c37.726316 8.084211 72.757895 24.252632 105.094737 43.11579-18.863158 32.336842-16.168421 78.147368 10.778947 105.094737 16.168421 16.168421 37.726316 24.252632 59.284211 24.252631h2.694737c16.168421 0 29.642105-5.389474 43.115789-13.473684 18.863158 32.336842 35.031579 67.368421 43.11579 102.4-37.726316 10.778947-64.673684 43.115789-64.673684 80.842105s29.642105 72.757895 64.673684 80.842106c-8.084211 37.726316-24.252632 72.757895-43.11579 102.4-32.336842-18.863158-75.452632-16.168421-102.4 10.778947s-29.642105 70.063158-10.778947 102.4c-32.336842 18.863158-67.368421 35.031579-105.094737 43.115789-10.778947-26.947368-45.810526-56.589474-83.536842-56.589473z m-247.915789-24.252632s0-2.694737 0 0l-5.389474-5.389474c-2.694737-5.389474-8.084211-8.084211-10.778948-13.473684-5.389474-5.389474-10.778947-10.778947-13.473684-16.168421 18.863158-8.084211 40.421053-8.084211 56.589474 8.084211 8.084211 8.084211 13.473684 21.557895 13.473684 35.031579 0 8.084211-2.694737 16.168421-5.389474 21.557894-2.694737 0-2.694737-2.694737-5.389473-2.694736l-8.084211-8.084211c-8.084211-8.084211-16.168421-13.473684-21.557894-18.863158zM158.989474 512c0-16.168421 0-29.642105 2.694737-43.115789 18.863158 5.389474 35.031579 24.252632 35.031578 43.115789s-16.168421 37.726316-35.031578 43.115789c-2.694737-13.473684-2.694737-26.947368-2.694737-43.115789z m99.705263-247.915789l2.694737-2.694737 2.694737-2.694737c5.389474-5.389474 10.778947-8.084211 13.473684-13.473684 5.389474-5.389474 10.778947-8.084211 16.168421-13.473685 2.694737 8.084211 5.389474 13.473684 5.389473 21.557895 0 13.473684-5.389474 24.252632-13.473684 35.031579-13.473684 13.473684-37.726316 16.168421-56.589473 8.084211 2.694737-2.694737 8.084211-8.084211 10.778947-13.473685l18.863158-18.863157zM512 158.989474h43.115789c-5.389474 18.863158-24.252632 35.031579-45.810526 35.031579-18.863158 0-37.726316-16.168421-45.810526-35.031579 5.389474 0 10.778947 0 16.168421-2.694737 13.473684 2.694737 21.557895 2.694737 32.336842 2.694737z m269.473684 123.957894c5.389474 5.389474 8.084211 8.084211 10.778948 13.473685-5.389474 2.694737-13.473684 5.389474-21.557895 5.389473-13.473684 0-24.252632-5.389474-35.031579-13.473684-13.473684-13.473684-16.168421-37.726316-8.084211-56.589474 5.389474 2.694737 8.084211 8.084211 13.473685 10.778948 16.168421 13.473684 29.642105 26.947368 40.421052 40.421052z m80.842105 183.242106c2.694737 10.778947 2.694737 26.947368 2.694737 45.810526s-2.694737 32.336842-2.694737 45.810526c-18.863158-5.389474-35.031579-24.252632-35.031578-45.810526 0-18.863158 16.168421-37.726316 35.031578-45.810526z m-126.652631 269.473684c8.084211-8.084211 21.557895-13.473684 35.031579-13.473684 8.084211 0 13.473684 2.694737 21.557895 5.389473-18.863158 24.252632-40.421053 45.810526-61.978948 61.978948-10.778947-16.168421-8.084211-40.421053 5.389474-53.894737z"  /><path fill="#505766" d="M512 361.094737c-83.536842 0-150.905263 67.368421-150.905263 150.905263 0 83.536842 67.368421 150.905263 150.905263 150.905263 83.536842 0 150.905263-67.368421 150.905263-150.905263 0-83.536842-67.368421-150.905263-150.905263-150.905263z m0 264.08421c-61.978947 0-113.178947-51.2-113.178947-113.178947 0-61.978947 51.2-113.178947 113.178947-113.178947 61.978947 0 113.178947 51.2 113.178947 113.178947 0 61.978947-51.2 113.178947-113.178947 113.178947z"  /></svg>